{
 "asset": {
  "generator": "Khronos glTF Blender I/O v5.2.40",
  "version": "2.0"
 },
 "scene": 0,
 "scenes": [
  {
   "name": "Scene",
   "nodes": [
    0,
    6,
    18
   ]
  }
 ],
 "nodes": [
  {
   "mesh": 0,
   "name": "aaa_anchor",
   "translation": [
    0,
    -10,
    0
   ]
  },
  {
   "mesh": 1,
   "name": "cap",
   "rotation": [
    -0.1386435329914093,
    0.012129737995564938,
    -0.0863075703382492,
    0.9864999055862427
   ],
   "scale": [
    0.4999999403953552,
    0.4999999701976776,
    0.5
   ],
   "translation": [
    1.100549578666687,
    1.935368537902832,
    -2.3443965911865234
   ]
  },
  {
   "mesh": 2,
   "name": "eyes",
   "translation": [
    0,
    0.10359573364257812,
    2.5868215560913086
   ]
  },
  {
   "children": [
    1,
    2
   ],
   "mesh": 3,
   "name": "head",
   "translation": [
    0,
    6.884382247924805,
    3.0967354774475098
   ]
  },
  {
   "mesh": 4,
   "name": "heart.001",
   "translation": [
    0,
    3.7197513580322266,
    4.477886199951172
   ]
  },
  {
   "mesh": 5,
   "name": "tail",
   "rotation": [
    0,
    0.5150380730628967,
    0,
    0.8571673035621643
   ],
   "translation": [
    0,
    0,
    -1.9506410360336304
   ]
  },
  {
   "children": [
    3,
    4,
    5
   ],
   "mesh": 6,
   "name": "body.001",
   "translation": [
    0,
    -6.419751167297363,
    0
   ]
  },
  {
   "mesh": 7,
   "name": "sparkle_0",
   "scale": [
    0.20000000298023224,
    0.20000000298023224,
    0.20000000298023224
   ],
   "translation": [
    -10.5,
    4.300000190734863,
    2
   ]
  },
  {
   "mesh": 8,
   "name": "sparkle_1",
   "scale": [
    0.20000000298023224,
    0.20000000298023224,
    0.20000000298023224
   ],
   "translation": [
    11.5,
    9.300000190734863,
    0
   ]
  },
  {
   "mesh": 9,
   "name": "sparkle_2",
   "scale": [
    0.20000000298023224,
    0.20000000298023224,
    0.20000000298023224
   ],
   "translation": [
    -7,
    15.800000190734863,
    3
   ]
  },
  {
   "mesh": 10,
   "name": "sparkle_3",
   "scale": [
    0.20000000298023224,
    0.20000000298023224,
    0.20000000298023224
   ],
   "translation": [
    17,
    5.300000190734863,
    -2
   ]
  },
  {
   "mesh": 11,
   "name": "sparkle_4",
   "scale": [
    0.20000000298023224,
    0.20000000298023224,
    0.20000000298023224
   ],
   "translation": [
    -11.5,
    11.300000190734863,
    -1
   ]
  },
  {
   "mesh": 12,
   "name": "sparkle_5",
   "scale": [
    0.20000000298023224,
    0.20000000298023224,
    0.20000000298023224
   ],
   "translation": [
    7,
    14.300000190734863,
    2
   ]
  },
  {
   "mesh": 13,
   "name": "sparkle_6",
   "scale": [
    0.20000000298023224,
    0.20000000298023224,
    0.20000000298023224
   ],
   "translation": [
    4.5,
    1.3000001907348633,
    4
   ]
  },
  {
   "mesh": 14,
   "name": "sparkle_7",
   "scale": [
    0.20000000298023224,
    0.20000000298023224,
    0.20000000298023224
   ],
   "translation": [
    14.5,
    14.800000190734863,
    1
   ]
  },
  {
   "mesh": 15,
   "name": "sparkle_8",
   "scale": [
    0.20000000298023224,
    0.20000000298023224,
    0.20000000298023224
   ],
   "translation": [
    9.5,
    2.8000001907348633,
    2
   ]
  },
  {
   "mesh": 16,
   "name": "sparkle_9",
   "scale": [
    0.20000000298023224,
    0.20000000298023224,
    0.20000000298023224
   ],
   "translation": [
    -16,
    13.800000190734863,
    0
   ]
  },
  {
   "mesh": 17,
   "name": "wordmark",
   "translation": [
    0,
    20.200000762939453,
    -5
   ]
  },
  {
   "children": [
    7,
    8,
    9,
    10,
    11,
    12,
    13,
    14,
    15,
    16,
    17
   ],
   "mesh": 18,
   "name": "egg",
   "translation": [
    0,
    -12.300000190734863,
    0
   ]
  }
 ],
 "animations": [
  {
   "channels": [
    {
     "sampler": 0,
     "target": {
      "node": 6,
      "path": "translation"
     }
    },
    {
     "sampler": 1,
     "target": {
      "node": 6,
      "path": "rotation"
     }
    },
    {
     "sampler": 2,
     "target": {
      "path": "pointer",
      "extensions": {
       "KHR_animation_pointer": {
        "pointer": "/materials/11/pbrMetallicRoughness/baseColorFactor"
       }
      }
     }
    }
   ],
   "name": "body.001",
   "samplers": [
    {
     "input": 100,
     "interpolation": "LINEAR",
     "output": 101
    },
    {
     "input": 100,
     "interpolation": "LINEAR",
     "output": 102
    },
    {
     "input": 117,
     "output": 118,
     "interpolation": "LINEAR"
    }
   ]
  },
  {
   "channels": [
    {
     "sampler": 0,
     "target": {
      "node": 3,
      "path": "rotation"
     }
    }
   ],
   "name": "head",
   "samplers": [
    {
     "input": 100,
     "interpolation": "LINEAR",
     "output": 103
    }
   ]
  },
  {
   "channels": [
    {
     "sampler": 0,
     "target": {
      "node": 2,
      "path": "scale"
     }
    }
   ],
   "name": "eyes",
   "samplers": [
    {
     "input": 100,
     "interpolation": "LINEAR",
     "output": 104
    }
   ]
  },
  {
   "channels": [
    {
     "sampler": 0,
     "target": {
      "node": 4,
      "path": "scale"
     }
    }
   ],
   "name": "heart.001",
   "samplers": [
    {
     "input": 100,
     "interpolation": "LINEAR",
     "output": 105
    }
   ]
  },
  {
   "channels": [
    {
     "sampler": 0,
     "target": {
      "node": 5,
      "path": "rotation"
     }
    }
   ],
   "name": "tail",
   "samplers": [
    {
     "input": 100,
     "interpolation": "LINEAR",
     "output": 106
    }
   ]
  },
  {
   "channels": [
    {
     "sampler": 0,
     "target": {
      "node": 18,
      "path": "rotation"
     }
    }
   ],
   "name": "egg",
   "samplers": [
    {
     "input": 100,
     "interpolation": "LINEAR",
     "output": 102
    }
   ]
  },
  {
   "channels": [
    {
     "sampler": 0,
     "target": {
      "node": 7,
      "path": "scale"
     }
    }
   ],
   "name": "sparkle_0",
   "samplers": [
    {
     "input": 100,
     "interpolation": "LINEAR",
     "output": 107
    }
   ]
  },
  {
   "channels": [
    {
     "sampler": 0,
     "target": {
      "node": 8,
      "path": "scale"
     }
    }
   ],
   "name": "sparkle_1",
   "samplers": [
    {
     "input": 100,
     "interpolation": "LINEAR",
     "output": 108
    }
   ]
  },
  {
   "channels": [
    {
     "sampler": 0,
     "target": {
      "node": 9,
      "path": "scale"
     }
    }
   ],
   "name": "sparkle_2",
   "samplers": [
    {
     "input": 100,
     "interpolation": "LINEAR",
     "output": 109
    }
   ]
  },
  {
   "channels": [
    {
     "sampler": 0,
     "target": {
      "node": 10,
      "path": "scale"
     }
    }
   ],
   "name": "sparkle_3",
   "samplers": [
    {
     "input": 100,
     "interpolation": "LINEAR",
     "output": 110
    }
   ]
  },
  {
   "channels": [
    {
     "sampler": 0,
     "target": {
      "node": 11,
      "path": "scale"
     }
    }
   ],
   "name": "sparkle_4",
   "samplers": [
    {
     "input": 100,
     "interpolation": "LINEAR",
     "output": 111
    }
   ]
  },
  {
   "channels": [
    {
     "sampler": 0,
     "target": {
      "node": 12,
      "path": "scale"
     }
    }
   ],
   "name": "sparkle_5",
   "samplers": [
    {
     "input": 100,
     "interpolation": "LINEAR",
     "output": 112
    }
   ]
  },
  {
   "channels": [
    {
     "sampler": 0,
     "target": {
      "node": 13,
      "path": "scale"
     }
    }
   ],
   "name": "sparkle_6",
   "samplers": [
    {
     "input": 100,
     "interpolation": "LINEAR",
     "output": 113
    }
   ]
  },
  {
   "channels": [
    {
     "sampler": 0,
     "target": {
      "node": 14,
      "path": "scale"
     }
    }
   ],
   "name": "sparkle_7",
   "samplers": [
    {
     "input": 100,
     "interpolation": "LINEAR",
     "output": 114
    }
   ]
  },
  {
   "channels": [
    {
     "sampler": 0,
     "target": {
      "node": 15,
      "path": "scale"
     }
    }
   ],
   "name": "sparkle_8",
   "samplers": [
    {
     "input": 100,
     "interpolation": "LINEAR",
     "output": 115
    }
   ]
  },
  {
   "channels": [
    {
     "sampler": 0,
     "target": {
      "node": 16,
      "path": "scale"
     }
    }
   ],
   "name": "sparkle_9",
   "samplers": [
    {
     "input": 100,
     "interpolation": "LINEAR",
     "output": 116
    }
   ]
  }
 ],
 "materials": [
  {
   "doubleSided": true,
   "name": "anchor",
   "pbrMetallicRoughness": {
    "baseColorFactor": [
     0.9700000286102295,
     0.8999999761581421,
     0.800000011920929,
     1
    ],
    "metallicFactor": 0,
    "roughnessFactor": 0.8999999761581421
   }
  },
  {
   "doubleSided": true,
   "name": "shell",
   "pbrMetallicRoughness": {
    "baseColorFactor": [
     0.9700000286102295,
     0.8999999761581421,
     0.800000011920929,
     1
    ],
    "metallicFactor": 0,
    "roughnessFactor": 0.44999998807907104
   }
  },
  {
   "doubleSided": true,
   "name": "shell_glow",
   "pbrMetallicRoughness": {
    "baseColorFactor": [
     1,
     0.5199999809265137,
     0.18000000715255737,
     1
    ],
    "metallicFactor": 0,
    "roughnessFactor": 0.800000011920929
   }
  },
  {
   "doubleSided": true,
   "name": "b_iris",
   "pbrMetallicRoughness": {
    "baseColorFactor": [
     0.949999988079071,
     0.6200000047683716,
     0.15000000596046448,
     1
    ],
    "metallicFactor": 0,
    "roughnessFactor": 0.5
   }
  },
  {
   "doubleSided": true,
   "name": "b_pupil",
   "pbrMetallicRoughness": {
    "baseColorFactor": [
     0.05999999865889549,
     0.029999999329447746,
     0.05000000074505806,
     1
    ],
    "metallicFactor": 0,
    "roughnessFactor": 0.5
   }
  },
  {
   "doubleSided": true,
   "name": "b_glint",
   "pbrMetallicRoughness": {
    "metallicFactor": 0,
    "roughnessFactor": 0.5
   }
  },
  {
   "doubleSided": true,
   "name": "b_body",
   "pbrMetallicRoughness": {
    "baseColorTexture": {
     "index": 0
    },
    "metallicFactor": 0,
    "roughnessFactor": 0.699999988079071
   }
  },
  {
   "doubleSided": true,
   "name": "b_mouth",
   "pbrMetallicRoughness": {
    "baseColorFactor": [
     0.36000001430511475,
     0.10999999940395355,
     0.1599999964237213,
     1
    ],
    "metallicFactor": 0,
    "roughnessFactor": 0.5
   }
  },
  {
   "doubleSided": true,
   "name": "b_horn",
   "pbrMetallicRoughness": {
    "baseColorFactor": [
     0.9599999785423279,
     0.7400000095367432,
     0.30000001192092896,
     1
    ],
    "metallicFactor": 0,
    "roughnessFactor": 0.5
   }
  },
  {
   "doubleSided": true,
   "name": "b_tooth",
   "pbrMetallicRoughness": {
    "baseColorFactor": [
     0.9700000286102295,
     0.949999988079071,
     0.8999999761581421,
     1
    ],
    "metallicFactor": 0,
    "roughnessFactor": 0.5
   }
  },
  {
   "doubleSided": true,
   "name": "b_tongue",
   "pbrMetallicRoughness": {
    "baseColorFactor": [
     0.9300000071525574,
     0.44999998807907104,
     0.550000011920929,
     1
    ],
    "metallicFactor": 0,
    "roughnessFactor": 0.5
   }
  },
  {
   "doubleSided": true,
   "name": "heart_glow",
   "pbrMetallicRoughness": {
    "baseColorFactor": [
     1,
     0.44999998807907104,
     0.11999999731779099,
     1
    ],
    "metallicFactor": 0,
    "roughnessFactor": 0.3499999940395355
   }
  },
  {
   "doubleSided": true,
   "name": "b_body_plain",
   "pbrMetallicRoughness": {
    "baseColorFactor": [
     0.8600000143051147,
     0.30000001192092896,
     0.10000000149011612,
     1
    ],
    "metallicFactor": 0,
    "roughnessFactor": 0.5
   }
  },
  {
   "doubleSided": true,
   "name": "b_membrane",
   "pbrMetallicRoughness": {
    "baseColorFactor": [
     0.9139999747276306,
     0.5429999828338623,
     0.30250000953674316,
     1
    ],
    "metallicFactor": 0,
    "roughnessFactor": 0.5
   }
  },
  {
   "doubleSided": true,
   "emissiveFactor": [
    0.800000011920929,
    0.6880000216960909,
    0.3599999958276747
   ],
   "name": "sparkle",
   "pbrMetallicRoughness": {
    "baseColorFactor": [
     1,
     0.8600000143051147,
     0.44999998807907104,
     1
    ],
    "metallicFactor": 0,
    "roughnessFactor": 0.5
   },
   "alphaMode": "MASK",
   "alphaCutoff": 0.5,
   "extensions": {
    "KHR_materials_unlit": {}
   }
  },
  {
   "alphaMode": "MASK",
   "doubleSided": true,
   "name": "wordmark",
   "pbrMetallicRoughness": {
    "baseColorTexture": {
     "index": 1
    },
    "metallicFactor": 0
   },
   "alphaCutoff": 0.5,
   "extensions": {
    "KHR_materials_unlit": {}
   }
  }
 ],
 "meshes": [
  {
   "name": "aaa_anchor",
   "primitives": [
    {
     "attributes": {
      "POSITION": 0,
      "NORMAL": 1
     },
     "indices": 2,
     "material": 0
    }
   ]
  },
  {
   "name": "cap",
   "primitives": [
    {
     "attributes": {
      "POSITION": 3,
      "NORMAL": 4
     },
     "indices": 5,
     "material": 1
    },
    {
     "attributes": {
      "POSITION": 6,
      "NORMAL": 7
     },
     "indices": 8,
     "material": 2
    }
   ]
  },
  {
   "name": "eye_-1.002",
   "primitives": [
    {
     "attributes": {
      "POSITION": 9,
      "NORMAL": 10
     },
     "indices": 11,
     "material": 3
    },
    {
     "attributes": {
      "POSITION": 12,
      "NORMAL": 13
     },
     "indices": 14,
     "material": 4
    },
    {
     "attributes": {
      "POSITION": 15,
      "NORMAL": 16
     },
     "indices": 17,
     "material": 5
    }
   ]
  },
  {
   "name": "body.001_part.001",
   "primitives": [
    {
     "attributes": {
      "POSITION": 18,
      "NORMAL": 19,
      "TEXCOORD_0": 20
     },
     "indices": 21,
     "material": 6
    },
    {
     "attributes": {
      "POSITION": 22,
      "NORMAL": 23,
      "TEXCOORD_0": 24
     },
     "indices": 25,
     "material": 4
    },
    {
     "attributes": {
      "POSITION": 26,
      "NORMAL": 27,
      "TEXCOORD_0": 28
     },
     "indices": 29,
     "material": 7
    },
    {
     "attributes": {
      "POSITION": 30,
      "NORMAL": 31,
      "TEXCOORD_0": 32
     },
     "indices": 33,
     "material": 8
    },
    {
     "attributes": {
      "POSITION": 34,
      "NORMAL": 35,
      "TEXCOORD_0": 36
     },
     "indices": 37,
     "material": 9
    },
    {
     "attributes": {
      "POSITION": 38,
      "NORMAL": 39,
      "TEXCOORD_0": 40
     },
     "indices": 41,
     "material": 10
    }
   ]
  },
  {
   "name": "heart.001",
   "primitives": [
    {
     "attributes": {
      "POSITION": 42,
      "NORMAL": 43
     },
     "indices": 44,
     "material": 11
    }
   ]
  },
  {
   "name": "body.001_part.002",
   "primitives": [
    {
     "attributes": {
      "POSITION": 45,
      "NORMAL": 46,
      "TEXCOORD_0": 47
     },
     "indices": 48,
     "material": 6
    },
    {
     "attributes": {
      "POSITION": 49,
      "NORMAL": 50,
      "TEXCOORD_0": 51
     },
     "indices": 52,
     "material": 8
    }
   ]
  },
  {
   "name": "body.001_part",
   "primitives": [
    {
     "attributes": {
      "POSITION": 53,
      "NORMAL": 54,
      "TEXCOORD_0": 55
     },
     "indices": 56,
     "material": 6
    },
    {
     "attributes": {
      "POSITION": 57,
      "NORMAL": 58,
      "TEXCOORD_0": 59
     },
     "indices": 60,
     "material": 12
    },
    {
     "attributes": {
      "POSITION": 61,
      "NORMAL": 62,
      "TEXCOORD_0": 63
     },
     "indices": 64,
     "material": 13
    },
    {
     "attributes": {
      "POSITION": 65,
      "NORMAL": 66,
      "TEXCOORD_0": 67
     },
     "indices": 68,
     "material": 8
    }
   ]
  },
  {
   "name": "sparkle_0",
   "primitives": [
    {
     "attributes": {
      "POSITION": 69,
      "NORMAL": 70
     },
     "indices": 71,
     "material": 14
    }
   ]
  },
  {
   "name": "sparkle_1",
   "primitives": [
    {
     "attributes": {
      "POSITION": 72,
      "NORMAL": 73
     },
     "indices": 71,
     "material": 14
    }
   ]
  },
  {
   "name": "sparkle_2",
   "primitives": [
    {
     "attributes": {
      "POSITION": 74,
      "NORMAL": 75
     },
     "indices": 71,
     "material": 14
    }
   ]
  },
  {
   "name": "sparkle_3",
   "primitives": [
    {
     "attributes": {
      "POSITION": 76,
      "NORMAL": 77
     },
     "indices": 71,
     "material": 14
    }
   ]
  },
  {
   "name": "sparkle_4",
   "primitives": [
    {
     "attributes": {
      "POSITION": 78,
      "NORMAL": 79
     },
     "indices": 71,
     "material": 14
    }
   ]
  },
  {
   "name": "sparkle_5",
   "primitives": [
    {
     "attributes": {
      "POSITION": 80,
      "NORMAL": 81
     },
     "indices": 71,
     "material": 14
    }
   ]
  },
  {
   "name": "sparkle_6",
   "primitives": [
    {
     "attributes": {
      "POSITION": 82,
      "NORMAL": 83
     },
     "indices": 71,
     "material": 14
    }
   ]
  },
  {
   "name": "sparkle_7",
   "primitives": [
    {
     "attributes": {
      "POSITION": 84,
      "NORMAL": 85
     },
     "indices": 71,
     "material": 14
    }
   ]
  },
  {
   "name": "sparkle_8",
   "primitives": [
    {
     "attributes": {
      "POSITION": 86,
      "NORMAL": 87
     },
     "indices": 71,
     "material": 14
    }
   ]
  },
  {
   "name": "sparkle_9",
   "primitives": [
    {
     "attributes": {
      "POSITION": 88,
      "NORMAL": 89
     },
     "indices": 71,
     "material": 14
    }
   ]
  },
  {
   "name": "wordmark",
   "primitives": [
    {
     "attributes": {
      "POSITION": 90,
      "NORMAL": 91,
      "TEXCOORD_0": 92
     },
     "indices": 93,
     "material": 15
    }
   ]
  },
  {
   "name": "egg",
   "primitives": [
    {
     "attributes": {
      "POSITION": 94,
      "NORMAL": 95
     },
     "indices": 96,
     "material": 1
    },
    {
     "attributes": {
      "POSITION": 97,
      "NORMAL": 98
     },
     "indices": 99,
     "material": 2
    }
   ]
  }
 ],
 "textures": [
  {
   "sampler": 0,
   "source": 0
  },
  {
   "sampler": 0,
   "source": 1
  }
 ],
 "images": [
  {
   "mimeType": "image/png",
   "name": "banner_skin",
   "uri": "banner_skin.png"
  },
  {
   "mimeType": "image/png",
   "name": "wordmark",
   "uri": "wordmark.png"
  }
 ],
 "accessors": [
  {
   "bufferView": 0,
   "componentType": 5126,
   "count": 3,
   "max": [
    0.20000000298023224,
    0.30000001192092896,
    0
   ],
   "min": [
    -0.20000000298023224,
    0,
    0
   ],
   "type": "VEC3"
  },
  {
   "bufferView": 1,
   "componentType": 5126,
   "count": 3,
   "type": "VEC3"
  },
  {
   "bufferView": 2,
   "componentType": 5123,
   "count": 3,
   "type": "SCALAR"
  },
  {
   "bufferView": 3,
   "componentType": 5126,
   "count": 193,
   "max": [
    5.961964130401611,
    6.81273889541626,
    5.961964130401611
   ],
   "min": [
    -5.961964130401611,
    0,
    -5.961964130401611
   ],
   "type": "VEC3"
  },
  {
   "bufferView": 4,
   "componentType": 5126,
   "count": 193,
   "type": "VEC3"
  },
  {
   "bufferView": 5,
   "componentType": 5123,
   "count": 1080,
   "type": "SCALAR"
  },
  {
   "bufferView": 6,
   "componentType": 5126,
   "count": 169,
   "max": [
    5.484617710113525,
    6.313989162445068,
    5.484617710113525
   ],
   "min": [
    -5.484617710113525,
    0,
    -5.484617710113525
   ],
   "type": "VEC3"
  },
  {
   "bufferView": 7,
   "componentType": 5126,
   "count": 169,
   "type": "VEC3"
  },
  {
   "bufferView": 8,
   "componentType": 5123,
   "count": 936,
   "type": "SCALAR"
  },
  {
   "bufferView": 9,
   "componentType": 5126,
   "count": 86,
   "max": [
    2.4991095066070557,
    1.0985554456710815,
    0.854383647441864
   ],
   "min": [
    -2.518573522567749,
    -1.0796900987625122,
    -0.13467444479465485
   ],
   "type": "VEC3"
  },
  {
   "bufferView": 10,
   "componentType": 5126,
   "count": 86,
   "type": "VEC3"
  },
  {
   "bufferView": 11,
   "componentType": 5123,
   "count": 420,
   "type": "SCALAR"
  },
  {
   "bufferView": 12,
   "componentType": 5126,
   "count": 50,
   "max": [
    2.346651792526245,
    0.8087835907936096,
    0.9340829253196716
   ],
   "min": [
    -2.3661158084869385,
    -0.8183462619781494,
    0.3244592845439911
   ],
   "type": "VEC3"
  },
  {
   "bufferView": 13,
   "componentType": 5126,
   "count": 50,
   "type": "VEC3"
  },
  {
   "bufferView": 14,
   "componentType": 5123,
   "count": 216,
   "type": "SCALAR"
  },
  {
   "bufferView": 15,
   "componentType": 5126,
   "count": 36,
   "max": [
    2.265942096710205,
    0.6041052937507629,
    0.9129488468170166
   ],
   "min": [
    -2.2854061126708984,
    -0.5026479959487915,
    0.642676830291748
   ],
   "type": "VEC3"
  },
  {
   "bufferView": 16,
   "componentType": 5126,
   "count": 36,
   "type": "VEC3"
  },
  {
   "bufferView": 17,
   "componentType": 5123,
   "count": 96,
   "type": "SCALAR"
  },
  {
   "bufferView": 18,
   "componentType": 5126,
   "count": 136,
   "max": [
    2.8881747722625732,
    3.2831668853759766,
    4.322506904602051
   ],
   "min": [
    -2.8778300285339355,
    -3.1065564155578613,
    -2.1549324989318848
   ],
   "type": "VEC3"
  },
  {
   "bufferView": 19,
   "componentType": 5126,
   "count": 136,
   "type": "VEC3"
  },
  {
   "bufferView": 20,
   "componentType": 5126,
   "count": 136,
   "type": "VEC2"
  },
  {
   "bufferView": 21,
   "componentType": 5123,
   "count": 468,
   "type": "SCALAR"
  },
  {
   "bufferView": 22,
   "componentType": 5126,
   "count": 34,
   "max": [
    2.301175117492676,
    -0.37294766306877136,
    4.192726135253906
   ],
   "min": [
    -2.4267947673797607,
    -1.5454930067062378,
    2.8477048873901367
   ],
   "type": "VEC3"
  },
  {
   "bufferView": 23,
   "componentType": 5126,
   "count": 34,
   "type": "VEC3"
  },
  {
   "bufferView": 24,
   "componentType": 5126,
   "count": 34,
   "type": "VEC2"
  },
  {
   "bufferView": 25,
   "componentType": 5123,
   "count": 138,
   "type": "SCALAR"
  },
  {
   "bufferView": 26,
   "componentType": 5126,
   "count": 48,
   "max": [
    2.2497239112854004,
    -1.0756793022155762,
    4.13822078704834
   ],
   "min": [
    -2.390775680541992,
    -1.4834760427474976,
    2.7033088207244873
   ],
   "type": "VEC3"
  },
  {
   "bufferView": 27,
   "componentType": 5126,
   "count": 48,
   "type": "VEC3"
  },
  {
   "bufferView": 28,
   "componentType": 5126,
   "count": 48,
   "type": "VEC2"
  },
  {
   "bufferView": 29,
   "componentType": 5123,
   "count": 48,
   "type": "SCALAR"
  },
  {
   "bufferView": 30,
   "componentType": 5126,
   "count": 24,
   "max": [
    1.4252504110336304,
    3.7353687286376953,
    0.058592695742845535
   ],
   "min": [
    -1.4160284996032715,
    2.664687395095825,
    -1.165788173675537
   ],
   "type": "VEC3"
  },
  {
   "bufferView": 31,
   "componentType": 5126,
   "count": 24,
   "type": "VEC3"
  },
  {
   "bufferView": 32,
   "componentType": 5126,
   "count": 24,
   "type": "VEC2"
  },
  {
   "bufferView": 33,
   "componentType": 5123,
   "count": 108,
   "type": "SCALAR"
  },
  {
   "bufferView": 34,
   "componentType": 5126,
   "count": 54,
   "max": [
    1.3243811130523682,
    -1.2496877908706665,
    4.090710163116455
   ],
   "min": [
    -1.4595112800598145,
    -1.6574372053146362,
    3.3978238105773926
   ],
   "type": "VEC3"
  },
  {
   "bufferView": 35,
   "componentType": 5126,
   "count": 54,
   "type": "VEC3"
  },
  {
   "bufferView": 36,
   "componentType": 5126,
   "count": 54,
   "type": "VEC2"
  },
  {
   "bufferView": 37,
   "componentType": 5123,
   "count": 54,
   "type": "SCALAR"
  },
  {
   "bufferView": 38,
   "componentType": 5126,
   "count": 50,
   "max": [
    0.4126558303833008,
    -1.0292869806289673,
    3.804917812347412
   ],
   "min": [
    -0.4126558303833008,
    -1.4263279438018799,
    2.739212989807129
   ],
   "type": "VEC3"
  },
  {
   "bufferView": 39,
   "componentType": 5126,
   "count": 50,
   "type": "VEC3"
  },
  {
   "bufferView": 40,
   "componentType": 5126,
   "count": 50,
   "type": "VEC2"
  },
  {
   "bufferView": 41,
   "componentType": 5123,
   "count": 60,
   "type": "SCALAR"
  },
  {
   "bufferView": 42,
   "componentType": 5126,
   "count": 20,
   "max": [
    0.6422577500343323,
    0.3977251350879669,
    0.39912301301956177
   ],
   "min": [
    -0.6422577500343323,
    -0.5939984917640686,
    -0.2812405526638031
   ],
   "type": "VEC3"
  },
  {
   "bufferView": 43,
   "componentType": 5126,
   "count": 20,
   "type": "VEC3"
  },
  {
   "bufferView": 44,
   "componentType": 5123,
   "count": 48,
   "type": "SCALAR"
  },
  {
   "bufferView": 45,
   "componentType": 5126,
   "count": 64,
   "max": [
    2.334798812866211,
    5.740778923034668,
    0.07153555750846863
   ],
   "min": [
    -2.3191165924072266,
    -2.2630348205566406,
    -4.456340312957764
   ],
   "type": "VEC3"
  },
  {
   "bufferView": 46,
   "componentType": 5126,
   "count": 64,
   "type": "VEC3"
  },
  {
   "bufferView": 47,
   "componentType": 5126,
   "count": 64,
   "type": "VEC2"
  },
  {
   "bufferView": 48,
   "componentType": 5123,
   "count": 204,
   "type": "SCALAR"
  },
  {
   "bufferView": 49,
   "componentType": 5126,
   "count": 35,
   "max": [
    0.3990190625190735,
    6.902786731719971,
    -0.7190452218055725
   ],
   "min": [
    -3.095738410949707,
    1.958398461341858,
    -4.476259708404541
   ],
   "type": "VEC3"
  },
  {
   "bufferView": 50,
   "componentType": 5126,
   "count": 35,
   "type": "VEC3"
  },
  {
   "bufferView": 51,
   "componentType": 5126,
   "count": 35,
   "type": "VEC2"
  },
  {
   "bufferView": 52,
   "componentType": 5123,
   "count": 129,
   "type": "SCALAR"
  },
  {
   "bufferView": 53,
   "componentType": 5126,
   "count": 355,
   "max": [
    3.2155232429504395,
    9.119041442871094,
    4.258930206298828
   ],
   "min": [
    -3.247976303100586,
    -4.3802490234375,
    -4.41689920425415
   ],
   "type": "VEC3"
  },
  {
   "bufferView": 54,
   "componentType": 5126,
   "count": 355,
   "type": "VEC3"
  },
  {
   "bufferView": 55,
   "componentType": 5126,
   "count": 355,
   "type": "VEC2"
  },
  {
   "bufferView": 56,
   "componentType": 5123,
   "count": 1062,
   "type": "SCALAR"
  },
  {
   "bufferView": 57,
   "componentType": 5126,
   "count": 72,
   "max": [
    5.802306652069092,
    6.4829511642456055,
    0.2378464937210083
   ],
   "min": [
    -5.792545318603516,
    2.6920344829559326,
    -4.07789421081543
   ],
   "type": "VEC3"
  },
  {
   "bufferView": 58,
   "componentType": 5126,
   "count": 72,
   "type": "VEC3"
  },
  {
   "bufferView": 59,
   "componentType": 5126,
   "count": 72,
   "type": "VEC2"
  },
  {
   "bufferView": 60,
   "componentType": 5123,
   "count": 336,
   "type": "SCALAR"
  },
  {
   "bufferView": 61,
   "componentType": 5126,
   "count": 80,
   "max": [
    5.553623199462891,
    6.3068156242370605,
    0.07147705554962158
   ],
   "min": [
    -5.553623199462891,
    2.604641914367676,
    -3.8429107666015625
   ],
   "type": "VEC3"
  },
  {
   "bufferView": 62,
   "componentType": 5126,
   "count": 80,
   "type": "VEC3"
  },
  {
   "bufferView": 63,
   "componentType": 5126,
   "count": 80,
   "type": "VEC2"
  },
  {
   "bufferView": 64,
   "componentType": 5123,
   "count": 120,
   "type": "SCALAR"
  },
  {
   "bufferView": 65,
   "componentType": 5126,
   "count": 54,
   "max": [
    0.40844759345054626,
    6.59443473815918,
    1.1846531629562378
   ],
   "min": [
    -0.20422379672527313,
    1.2588459253311157,
    -3.8963937759399414
   ],
   "type": "VEC3"
  },
  {
   "bufferView": 66,
   "componentType": 5126,
   "count": 54,
   "type": "VEC3"
  },
  {
   "bufferView": 67,
   "componentType": 5126,
   "count": 54,
   "type": "VEC2"
  },
  {
   "bufferView": 68,
   "componentType": 5123,
   "count": 234,
   "type": "SCALAR"
  },
  {
   "bufferView": 69,
   "componentType": 5126,
   "count": 9,
   "max": [
    1.600000023841858,
    1.600000023841858,
    0
   ],
   "min": [
    -1.600000023841858,
    -1.600000023841858,
    0
   ],
   "type": "VEC3"
  },
  {
   "bufferView": 70,
   "componentType": 5126,
   "count": 9,
   "type": "VEC3"
  },
  {
   "bufferView": 71,
   "componentType": 5123,
   "count": 24,
   "type": "SCALAR"
  },
  {
   "bufferView": 72,
   "componentType": 5126,
   "count": 9,
   "max": [
    1.600000023841858,
    1.600000023841858,
    0
   ],
   "min": [
    -1.600000023841858,
    -1.600000023841858,
    0
   ],
   "type": "VEC3"
  },
  {
   "bufferView": 73,
   "componentType": 5126,
   "count": 9,
   "type": "VEC3"
  },
  {
   "bufferView": 74,
   "componentType": 5126,
   "count": 9,
   "max": [
    1.1200000047683716,
    1.1200000047683716,
    0
   ],
   "min": [
    -1.1200000047683716,
    -1.1200000047683716,
    0
   ],
   "type": "VEC3"
  },
  {
   "bufferView": 75,
   "componentType": 5126,
   "count": 9,
   "type": "VEC3"
  },
  {
   "bufferView": 76,
   "componentType": 5126,
   "count": 9,
   "max": [
    1.1200000047683716,
    1.1200000047683716,
    0
   ],
   "min": [
    -1.1200000047683716,
    -1.1200000047683716,
    0
   ],
   "type": "VEC3"
  },
  {
   "bufferView": 77,
   "componentType": 5126,
   "count": 9,
   "type": "VEC3"
  },
  {
   "bufferView": 78,
   "componentType": 5126,
   "count": 9,
   "max": [
    1.9199999570846558,
    1.9199999570846558,
    0
   ],
   "min": [
    -1.9199999570846558,
    -1.9199999570846558,
    0
   ],
   "type": "VEC3"
  },
  {
   "bufferView": 79,
   "componentType": 5126,
   "count": 9,
   "type": "VEC3"
  },
  {
   "bufferView": 80,
   "componentType": 5126,
   "count": 9,
   "max": [
    1.2799999713897705,
    1.2799999713897705,
    0
   ],
   "min": [
    -1.2799999713897705,
    -1.2799999713897705,
    0
   ],
   "type": "VEC3"
  },
  {
   "bufferView": 81,
   "componentType": 5126,
   "count": 9,
   "type": "VEC3"
  },
  {
   "bufferView": 82,
   "componentType": 5126,
   "count": 9,
   "max": [
    0.9599999785423279,
    0.9599999785423279,
    0
   ],
   "min": [
    -0.9599999785423279,
    -0.9599999785423279,
    0
   ],
   "type": "VEC3"
  },
  {
   "bufferView": 83,
   "componentType": 5126,
   "count": 9,
   "type": "VEC3"
  },
  {
   "bufferView": 84,
   "componentType": 5126,
   "count": 9,
   "max": [
    1.440000057220459,
    1.440000057220459,
    0
   ],
   "min": [
    -1.440000057220459,
    -1.440000057220459,
    0
   ],
   "type": "VEC3"
  },
  {
   "bufferView": 85,
   "componentType": 5126,
   "count": 9,
   "type": "VEC3"
  },
  {
   "bufferView": 86,
   "componentType": 5126,
   "count": 9,
   "max": [
    1.2799999713897705,
    1.2799999713897705,
    0
   ],
   "min": [
    -1.2799999713897705,
    -1.2799999713897705,
    0
   ],
   "type": "VEC3"
  },
  {
   "bufferView": 87,
   "componentType": 5126,
   "count": 9,
   "type": "VEC3"
  },
  {
   "bufferView": 88,
   "componentType": 5126,
   "count": 9,
   "max": [
    1.1200000047683716,
    1.1200000047683716,
    0
   ],
   "min": [
    -1.1200000047683716,
    -1.1200000047683716,
    0
   ],
   "type": "VEC3"
  },
  {
   "bufferView": 89,
   "componentType": 5126,
   "count": 9,
   "type": "VEC3"
  },
  {
   "bufferView": 90,
   "componentType": 5126,
   "count": 4,
   "max": [
    15,
    3.75,
    0
   ],
   "min": [
    -15,
    -3.75,
    0
   ],
   "type": "VEC3"
  },
  {
   "bufferView": 91,
   "componentType": 5126,
   "count": 4,
   "type": "VEC3"
  },
  {
   "bufferView": 92,
   "componentType": 5126,
   "count": 4,
   "type": "VEC2"
  },
  {
   "bufferView": 93,
   "componentType": 5123,
   "count": 6,
   "type": "SCALAR"
  },
  {
   "bufferView": 94,
   "componentType": 5126,
   "count": 217,
   "max": [
    6.299998760223389,
    8.5386323928833,
    6.2999982833862305
   ],
   "min": [
    -6.299996852874756,
    0,
    -6.299996376037598
   ],
   "type": "VEC3"
  },
  {
   "bufferView": 95,
   "componentType": 5126,
   "count": 217,
   "type": "VEC3"
  },
  {
   "bufferView": 96,
   "componentType": 5123,
   "count": 1224,
   "type": "SCALAR"
  },
  {
   "bufferView": 97,
   "componentType": 5126,
   "count": 193,
   "max": [
    5.801933765411377,
    8.5386323928833,
    5.801933288574219
   ],
   "min": [
    -5.801931858062744,
    0.4987500011920929,
    -5.801931381225586
   ],
   "type": "VEC3"
  },
  {
   "bufferView": 98,
   "componentType": 5126,
   "count": 193,
   "type": "VEC3"
  },
  {
   "bufferView": 99,
   "componentType": 5123,
   "count": 1080,
   "type": "SCALAR"
  },
  {
   "bufferView": 100,
   "componentType": 5126,
   "count": 241,
   "max": [
    10
   ],
   "min": [
    0
   ],
   "type": "SCALAR"
  },
  {
   "bufferView": 101,
   "componentType": 5126,
   "count": 241,
   "type": "VEC3"
  },
  {
   "bufferView": 102,
   "componentType": 5126,
   "count": 241,
   "type": "VEC4"
  },
  {
   "bufferView": 103,
   "componentType": 5126,
   "count": 241,
   "type": "VEC4"
  },
  {
   "bufferView": 104,
   "componentType": 5126,
   "count": 241,
   "type": "VEC3"
  },
  {
   "bufferView": 105,
   "componentType": 5126,
   "count": 241,
   "type": "VEC3"
  },
  {
   "bufferView": 106,
   "componentType": 5126,
   "count": 241,
   "type": "VEC4"
  },
  {
   "bufferView": 107,
   "componentType": 5126,
   "count": 241,
   "type": "VEC3"
  },
  {
   "bufferView": 108,
   "componentType": 5126,
   "count": 241,
   "type": "VEC3"
  },
  {
   "bufferView": 109,
   "componentType": 5126,
   "count": 241,
   "type": "VEC3"
  },
  {
   "bufferView": 110,
   "componentType": 5126,
   "count": 241,
   "type": "VEC3"
  },
  {
   "bufferView": 111,
   "componentType": 5126,
   "count": 241,
   "type": "VEC3"
  },
  {
   "bufferView": 112,
   "componentType": 5126,
   "count": 241,
   "type": "VEC3"
  },
  {
   "bufferView": 113,
   "componentType": 5126,
   "count": 241,
   "type": "VEC3"
  },
  {
   "bufferView": 114,
   "componentType": 5126,
   "count": 241,
   "type": "VEC3"
  },
  {
   "bufferView": 115,
   "componentType": 5126,
   "count": 241,
   "type": "VEC3"
  },
  {
   "bufferView": 116,
   "componentType": 5126,
   "count": 241,
   "type": "VEC3"
  },
  {
   "bufferView": 117,
   "componentType": 5126,
   "count": 25,
   "type": "SCALAR",
   "min": [
    0.0
   ],
   "max": [
    10.0
   ]
  },
  {
   "bufferView": 118,
   "componentType": 5126,
   "count": 25,
   "type": "VEC4"
  }
 ],
 "bufferViews": [
  {
   "buffer": 0,
   "byteLength": 36,
   "byteOffset": 0,
   "target": 34962
  },
  {
   "buffer": 0,
   "byteLength": 36,
   "byteOffset": 36,
   "target": 34962
  },
  {
   "buffer": 0,
   "byteLength": 6,
   "byteOffset": 72,
   "target": 34963
  },
  {
   "buffer": 0,
   "byteLength": 2316,
   "byteOffset": 80,
   "target": 34962
  },
  {
   "buffer": 0,
   "byteLength": 2316,
   "byteOffset": 2396,
   "target": 34962
  },
  {
   "buffer": 0,
   "byteLength": 2160,
   "byteOffset": 4712,
   "target": 34963
  },
  {
   "buffer": 0,
   "byteLength": 2028,
   "byteOffset": 6872,
   "target": 34962
  },
  {
   "buffer": 0,
   "byteLength": 2028,
   "byteOffset": 8900,
   "target": 34962
  },
  {
   "buffer": 0,
   "byteLength": 1872,
   "byteOffset": 10928,
   "target": 34963
  },
  {
   "buffer": 0,
   "byteLength": 1032,
   "byteOffset": 12800,
   "target": 34962
  },
  {
   "buffer": 0,
   "byteLength": 1032,
   "byteOffset": 13832,
   "target": 34962
  },
  {
   "buffer": 0,
   "byteLength": 840,
   "byteOffset": 14864,
   "target": 34963
  },
  {
   "buffer": 0,
   "byteLength": 600,
   "byteOffset": 15704,
   "target": 34962
  },
  {
   "buffer": 0,
   "byteLength": 600,
   "byteOffset": 16304,
   "target": 34962
  },
  {
   "buffer": 0,
   "byteLength": 432,
   "byteOffset": 16904,
   "target": 34963
  },
  {
   "buffer": 0,
   "byteLength": 432,
   "byteOffset": 17336,
   "target": 34962
  },
  {
   "buffer": 0,
   "byteLength": 432,
   "byteOffset": 17768,
   "target": 34962
  },
  {
   "buffer": 0,
   "byteLength": 192,
   "byteOffset": 18200,
   "target": 34963
  },
  {
   "buffer": 0,
   "byteLength": 1632,
   "byteOffset": 18392,
   "target": 34962
  },
  {
   "buffer": 0,
   "byteLength": 1632,
   "byteOffset": 20024,
   "target": 34962
  },
  {
   "buffer": 0,
   "byteLength": 1088,
   "byteOffset": 21656,
   "target": 34962
  },
  {
   "buffer": 0,
   "byteLength": 936,
   "byteOffset": 22744,
   "target": 34963
  },
  {
   "buffer": 0,
   "byteLength": 408,
   "byteOffset": 23680,
   "target": 34962
  },
  {
   "buffer": 0,
   "byteLength": 408,
   "byteOffset": 24088,
   "target": 34962
  },
  {
   "buffer": 0,
   "byteLength": 272,
   "byteOffset": 24496,
   "target": 34962
  },
  {
   "buffer": 0,
   "byteLength": 276,
   "byteOffset": 24768,
   "target": 34963
  },
  {
   "buffer": 0,
   "byteLength": 576,
   "byteOffset": 25044,
   "target": 34962
  },
  {
   "buffer": 0,
   "byteLength": 576,
   "byteOffset": 25620,
   "target": 34962
  },
  {
   "buffer": 0,
   "byteLength": 384,
   "byteOffset": 26196,
   "target": 34962
  },
  {
   "buffer": 0,
   "byteLength": 96,
   "byteOffset": 26580,
   "target": 34963
  },
  {
   "buffer": 0,
   "byteLength": 288,
   "byteOffset": 26676,
   "target": 34962
  },
  {
   "buffer": 0,
   "byteLength": 288,
   "byteOffset": 26964,
   "target": 34962
  },
  {
   "buffer": 0,
   "byteLength": 192,
   "byteOffset": 27252,
   "target": 34962
  },
  {
   "buffer": 0,
   "byteLength": 216,
   "byteOffset": 27444,
   "target": 34963
  },
  {
   "buffer": 0,
   "byteLength": 648,
   "byteOffset": 27660,
   "target": 34962
  },
  {
   "buffer": 0,
   "byteLength": 648,
   "byteOffset": 28308,
   "target": 34962
  },
  {
   "buffer": 0,
   "byteLength": 432,
   "byteOffset": 28956,
   "target": 34962
  },
  {
   "buffer": 0,
   "byteLength": 108,
   "byteOffset": 29388,
   "target": 34963
  },
  {
   "buffer": 0,
   "byteLength": 600,
   "byteOffset": 29496,
   "target": 34962
  },
  {
   "buffer": 0,
   "byteLength": 600,
   "byteOffset": 30096,
   "target": 34962
  },
  {
   "buffer": 0,
   "byteLength": 400,
   "byteOffset": 30696,
   "target": 34962
  },
  {
   "buffer": 0,
   "byteLength": 120,
   "byteOffset": 31096,
   "target": 34963
  },
  {
   "buffer": 0,
   "byteLength": 240,
   "byteOffset": 31216,
   "target": 34962
  },
  {
   "buffer": 0,
   "byteLength": 240,
   "byteOffset": 31456,
   "target": 34962
  },
  {
   "buffer": 0,
   "byteLength": 96,
   "byteOffset": 31696,
   "target": 34963
  },
  {
   "buffer": 0,
   "byteLength": 768,
   "byteOffset": 31792,
   "target": 34962
  },
  {
   "buffer": 0,
   "byteLength": 768,
   "byteOffset": 32560,
   "target": 34962
  },
  {
   "buffer": 0,
   "byteLength": 512,
   "byteOffset": 33328,
   "target": 34962
  },
  {
   "buffer": 0,
   "byteLength": 408,
   "byteOffset": 33840,
   "target": 34963
  },
  {
   "buffer": 0,
   "byteLength": 420,
   "byteOffset": 34248,
   "target": 34962
  },
  {
   "buffer": 0,
   "byteLength": 420,
   "byteOffset": 34668,
   "target": 34962
  },
  {
   "buffer": 0,
   "byteLength": 280,
   "byteOffset": 35088,
   "target": 34962
  },
  {
   "buffer": 0,
   "byteLength": 258,
   "byteOffset": 35368,
   "target": 34963
  },
  {
   "buffer": 0,
   "byteLength": 4260,
   "byteOffset": 35628,
   "target": 34962
  },
  {
   "buffer": 0,
   "byteLength": 4260,
   "byteOffset": 39888,
   "target": 34962
  },
  {
   "buffer": 0,
   "byteLength": 2840,
   "byteOffset": 44148,
   "target": 34962
  },
  {
   "buffer": 0,
   "byteLength": 2124,
   "byteOffset": 46988,
   "target": 34963
  },
  {
   "buffer": 0,
   "byteLength": 864,
   "byteOffset": 49112,
   "target": 34962
  },
  {
   "buffer": 0,
   "byteLength": 864,
   "byteOffset": 49976,
   "target": 34962
  },
  {
   "buffer": 0,
   "byteLength": 576,
   "byteOffset": 50840,
   "target": 34962
  },
  {
   "buffer": 0,
   "byteLength": 672,
   "byteOffset": 51416,
   "target": 34963
  },
  {
   "buffer": 0,
   "byteLength": 960,
   "byteOffset": 52088,
   "target": 34962
  },
  {
   "buffer": 0,
   "byteLength": 960,
   "byteOffset": 53048,
   "target": 34962
  },
  {
   "buffer": 0,
   "byteLength": 640,
   "byteOffset": 54008,
   "target": 34962
  },
  {
   "buffer": 0,
   "byteLength": 240,
   "byteOffset": 54648,
   "target": 34963
  },
  {
   "buffer": 0,
   "byteLength": 648,
   "byteOffset": 54888,
   "target": 34962
  },
  {
   "buffer": 0,
   "byteLength": 648,
   "byteOffset": 55536,
   "target": 34962
  },
  {
   "buffer": 0,
   "byteLength": 432,
   "byteOffset": 56184,
   "target": 34962
  },
  {
   "buffer": 0,
   "byteLength": 468,
   "byteOffset": 56616,
   "target": 34963
  },
  {
   "buffer": 0,
   "byteLength": 108,
   "byteOffset": 57084,
   "target": 34962
  },
  {
   "buffer": 0,
   "byteLength": 108,
   "byteOffset": 57192,
   "target": 34962
  },
  {
   "buffer": 0,
   "byteLength": 48,
   "byteOffset": 57300,
   "target": 34963
  },
  {
   "buffer": 0,
   "byteLength": 108,
   "byteOffset": 57348,
   "target": 34962
  },
  {
   "buffer": 0,
   "byteLength": 108,
   "byteOffset": 57456,
   "target": 34962
  },
  {
   "buffer": 0,
   "byteLength": 108,
   "byteOffset": 57564,
   "target": 34962
  },
  {
   "buffer": 0,
   "byteLength": 108,
   "byteOffset": 57672,
   "target": 34962
  },
  {
   "buffer": 0,
   "byteLength": 108,
   "byteOffset": 57780,
   "target": 34962
  },
  {
   "buffer": 0,
   "byteLength": 108,
   "byteOffset": 57888,
   "target": 34962
  },
  {
   "buffer": 0,
   "byteLength": 108,
   "byteOffset": 57996,
   "target": 34962
  },
  {
   "buffer": 0,
   "byteLength": 108,
   "byteOffset": 58104,
   "target": 34962
  },
  {
   "buffer": 0,
   "byteLength": 108,
   "byteOffset": 58212,
   "target": 34962
  },
  {
   "buffer": 0,
   "byteLength": 108,
   "byteOffset": 58320,
   "target": 34962
  },
  {
   "buffer": 0,
   "byteLength": 108,
   "byteOffset": 58428,
   "target": 34962
  },
  {
   "buffer": 0,
   "byteLength": 108,
   "byteOffset": 58536,
   "target": 34962
  },
  {
   "buffer": 0,
   "byteLength": 108,
   "byteOffset": 58644,
   "target": 34962
  },
  {
   "buffer": 0,
   "byteLength": 108,
   "byteOffset": 58752,
   "target": 34962
  },
  {
   "buffer": 0,
   "byteLength": 108,
   "byteOffset": 58860,
   "target": 34962
  },
  {
   "buffer": 0,
   "byteLength": 108,
   "byteOffset": 58968,
   "target": 34962
  },
  {
   "buffer": 0,
   "byteLength": 108,
   "byteOffset": 59076,
   "target": 34962
  },
  {
   "buffer": 0,
   "byteLength": 108,
   "byteOffset": 59184,
   "target": 34962
  },
  {
   "buffer": 0,
   "byteLength": 48,
   "byteOffset": 59292,
   "target": 34962
  },
  {
   "buffer": 0,
   "byteLength": 48,
   "byteOffset": 59340,
   "target": 34962
  },
  {
   "buffer": 0,
   "byteLength": 32,
   "byteOffset": 59388,
   "target": 34962
  },
  {
   "buffer": 0,
   "byteLength": 12,
   "byteOffset": 59420,
   "target": 34963
  },
  {
   "buffer": 0,
   "byteLength": 2604,
   "byteOffset": 59432,
   "target": 34962
  },
  {
   "buffer": 0,
   "byteLength": 2604,
   "byteOffset": 62036,
   "target": 34962
  },
  {
   "buffer": 0,
   "byteLength": 2448,
   "byteOffset": 64640,
   "target": 34963
  },
  {
   "buffer": 0,
   "byteLength": 2316,
   "byteOffset": 67088,
   "target": 34962
  },
  {
   "buffer": 0,
   "byteLength": 2316,
   "byteOffset": 69404,
   "target": 34962
  },
  {
   "buffer": 0,
   "byteLength": 2160,
   "byteOffset": 71720,
   "target": 34963
  },
  {
   "buffer": 0,
   "byteLength": 964,
   "byteOffset": 73880
  },
  {
   "buffer": 0,
   "byteLength": 2892,
   "byteOffset": 74844
  },
  {
   "buffer": 0,
   "byteLength": 3856,
   "byteOffset": 77736
  },
  {
   "buffer": 0,
   "byteLength": 3856,
   "byteOffset": 81592
  },
  {
   "buffer": 0,
   "byteLength": 2892,
   "byteOffset": 85448
  },
  {
   "buffer": 0,
   "byteLength": 2892,
   "byteOffset": 88340
  },
  {
   "buffer": 0,
   "byteLength": 3856,
   "byteOffset": 91232
  },
  {
   "buffer": 0,
   "byteLength": 2892,
   "byteOffset": 95088
  },
  {
   "buffer": 0,
   "byteLength": 2892,
   "byteOffset": 97980
  },
  {
   "buffer": 0,
   "byteLength": 2892,
   "byteOffset": 100872
  },
  {
   "buffer": 0,
   "byteLength": 2892,
   "byteOffset": 103764
  },
  {
   "buffer": 0,
   "byteLength": 2892,
   "byteOffset": 106656
  },
  {
   "buffer": 0,
   "byteLength": 2892,
   "byteOffset": 109548
  },
  {
   "buffer": 0,
   "byteLength": 2892,
   "byteOffset": 112440
  },
  {
   "buffer": 0,
   "byteLength": 2892,
   "byteOffset": 115332
  },
  {
   "buffer": 0,
   "byteLength": 2892,
   "byteOffset": 118224
  },
  {
   "buffer": 0,
   "byteLength": 2892,
   "byteOffset": 121116
  },
  {
   "buffer": 1,
   "byteOffset": 0,
   "byteLength": 100
  },
  {
   "buffer": 1,
   "byteOffset": 100,
   "byteLength": 400
  }
 ],
 "samplers": [
  {
   "magFilter": 9729,
   "minFilter": 9987
  }
 ],
 "buffers": [
  {
   "byteLength": 124008,
   "uri": "banner.bin"
  },
  {
   "uri": "heart_colour.bin",
   "byteLength": 500
  }
 ],
 "extensionsUsed": [
  "KHR_animation_pointer",
  "KHR_materials_unlit"
 ]
}