{
 "asset": {
  "generator": "Khronos glTF Blender I/O v5.2.40",
  "version": "2.0"
 },
 "scene": 0,
 "scenes": [
  {
   "name": "Scene",
   "nodes": [
    0,
    6,
    18
   ]
  }
 ],
 "nodes": [
  {
   "mesh": 0,
   "name": "aaa_anchor",
   "translation": [
    0,
    -10,
    0
   ]
  },
  {
   "mesh": 1,
   "name": "cap",
   "rotation": [
    -0.1386435329914093,
    0.012129737995564938,
    -0.0863075703382492,
    0.9864999055862427
   ],
   "scale": [
    0.4999999403953552,
    0.4999999701976776,
    0.5
   ],
   "translation": [
    -0.05207676813006401,
    3.549345016479492,
    -2.9415640830993652
   ]
  },
  {
   "mesh": 2,
   "name": "eyes",
   "translation": [
    0,
    0.9345579147338867,
    2.5983166694641113
   ]
  },
  {
   "children": [
    1,
    2
   ],
   "mesh": 3,
   "name": "head",
   "translation": [
    0,
    7.778924942016602,
    1.7135543823242188
   ]
  },
  {
   "mesh": 4,
   "name": "heart",
   "translation": [
    0,
    6.003271102905273,
    5.300747871398926
   ]
  },
  {
   "mesh": 5,
   "name": "tail",
   "rotation": [
    0.44037747383117676,
    0.26672929525375366,
    -0.13885048031806946,
    0.8459572792053223
   ],
   "translation": [
    0,
    0,
    -2.926362991333008
   ]
  },
  {
   "children": [
    3,
    4,
    5
   ],
   "mesh": 6,
   "name": "body",
   "translation": [
    0,
    -8.928271293640137,
    0
   ]
  },
  {
   "mesh": 7,
   "name": "sparkle_0",
   "scale": [
    0.20000000298023224,
    0.20000000298023224,
    0.20000000298023224
   ],
   "translation": [
    -10.5,
    4.300000190734863,
    2
   ]
  },
  {
   "mesh": 8,
   "name": "sparkle_1",
   "scale": [
    0.20000000298023224,
    0.20000000298023224,
    0.20000000298023224
   ],
   "translation": [
    11.5,
    9.300000190734863,
    0
   ]
  },
  {
   "mesh": 9,
   "name": "sparkle_2",
   "scale": [
    0.20000000298023224,
    0.20000000298023224,
    0.20000000298023224
   ],
   "translation": [
    -7,
    15.800000190734863,
    3
   ]
  },
  {
   "mesh": 10,
   "name": "sparkle_3",
   "scale": [
    0.20000000298023224,
    0.20000000298023224,
    0.20000000298023224
   ],
   "translation": [
    17,
    5.300000190734863,
    -2
   ]
  },
  {
   "mesh": 11,
   "name": "sparkle_4",
   "scale": [
    0.20000000298023224,
    0.20000000298023224,
    0.20000000298023224
   ],
   "translation": [
    -11.5,
    11.300000190734863,
    -1
   ]
  },
  {
   "mesh": 12,
   "name": "sparkle_5",
   "scale": [
    0.20000000298023224,
    0.20000000298023224,
    0.20000000298023224
   ],
   "translation": [
    7,
    14.300000190734863,
    2
   ]
  },
  {
   "mesh": 13,
   "name": "sparkle_6",
   "scale": [
    0.20000000298023224,
    0.20000000298023224,
    0.20000000298023224
   ],
   "translation": [
    4.5,
    1.3000001907348633,
    4
   ]
  },
  {
   "mesh": 14,
   "name": "sparkle_7",
   "scale": [
    0.20000000298023224,
    0.20000000298023224,
    0.20000000298023224
   ],
   "translation": [
    14.5,
    14.800000190734863,
    1
   ]
  },
  {
   "mesh": 15,
   "name": "sparkle_8",
   "scale": [
    0.20000000298023224,
    0.20000000298023224,
    0.20000000298023224
   ],
   "translation": [
    9.5,
    2.8000001907348633,
    2
   ]
  },
  {
   "mesh": 16,
   "name": "sparkle_9",
   "scale": [
    0.20000000298023224,
    0.20000000298023224,
    0.20000000298023224
   ],
   "translation": [
    -16,
    13.800000190734863,
    0
   ]
  },
  {
   "mesh": 17,
   "name": "wordmark",
   "translation": [
    0,
    20.200000762939453,
    -5
   ]
  },
  {
   "children": [
    7,
    8,
    9,
    10,
    11,
    12,
    13,
    14,
    15,
    16,
    17
   ],
   "mesh": 18,
   "name": "egg",
   "translation": [
    0,
    -12.300000190734863,
    0
   ]
  }
 ],
 "animations": [
  {
   "channels": [
    {
     "sampler": 0,
     "target": {
      "node": 6,
      "path": "translation"
     }
    },
    {
     "sampler": 1,
     "target": {
      "node": 6,
      "path": "rotation"
     }
    },
    {
     "sampler": 2,
     "target": {
      "path": "pointer",
      "extensions": {
       "KHR_animation_pointer": {
        "pointer": "/materials/11/pbrMetallicRoughness/baseColorFactor"
       }
      }
     }
    }
   ],
   "name": "body",
   "samplers": [
    {
     "input": 100,
     "interpolation": "LINEAR",
     "output": 101
    },
    {
     "input": 100,
     "interpolation": "LINEAR",
     "output": 102
    },
    {
     "input": 117,
     "output": 118,
     "interpolation": "LINEAR"
    }
   ]
  },
  {
   "channels": [
    {
     "sampler": 0,
     "target": {
      "node": 3,
      "path": "rotation"
     }
    }
   ],
   "name": "head",
   "samplers": [
    {
     "input": 100,
     "interpolation": "LINEAR",
     "output": 103
    }
   ]
  },
  {
   "channels": [
    {
     "sampler": 0,
     "target": {
      "node": 2,
      "path": "scale"
     }
    }
   ],
   "name": "eyes",
   "samplers": [
    {
     "input": 100,
     "interpolation": "LINEAR",
     "output": 104
    }
   ]
  },
  {
   "channels": [
    {
     "sampler": 0,
     "target": {
      "node": 4,
      "path": "scale"
     }
    }
   ],
   "name": "heart",
   "samplers": [
    {
     "input": 100,
     "interpolation": "LINEAR",
     "output": 105
    }
   ]
  },
  {
   "channels": [
    {
     "sampler": 0,
     "target": {
      "node": 5,
      "path": "rotation"
     }
    }
   ],
   "name": "tail",
   "samplers": [
    {
     "input": 100,
     "interpolation": "LINEAR",
     "output": 106
    }
   ]
  },
  {
   "channels": [
    {
     "sampler": 0,
     "target": {
      "node": 18,
      "path": "rotation"
     }
    }
   ],
   "name": "egg",
   "samplers": [
    {
     "input": 100,
     "interpolation": "LINEAR",
     "output": 102
    }
   ]
  },
  {
   "channels": [
    {
     "sampler": 0,
     "target": {
      "node": 7,
      "path": "scale"
     }
    }
   ],
   "name": "sparkle_0",
   "samplers": [
    {
     "input": 100,
     "interpolation": "LINEAR",
     "output": 107
    }
   ]
  },
  {
   "channels": [
    {
     "sampler": 0,
     "target": {
      "node": 8,
      "path": "scale"
     }
    }
   ],
   "name": "sparkle_1",
   "samplers": [
    {
     "input": 100,
     "interpolation": "LINEAR",
     "output": 108
    }
   ]
  },
  {
   "channels": [
    {
     "sampler": 0,
     "target": {
      "node": 9,
      "path": "scale"
     }
    }
   ],
   "name": "sparkle_2",
   "samplers": [
    {
     "input": 100,
     "interpolation": "LINEAR",
     "output": 109
    }
   ]
  },
  {
   "channels": [
    {
     "sampler": 0,
     "target": {
      "node": 10,
      "path": "scale"
     }
    }
   ],
   "name": "sparkle_3",
   "samplers": [
    {
     "input": 100,
     "interpolation": "LINEAR",
     "output": 110
    }
   ]
  },
  {
   "channels": [
    {
     "sampler": 0,
     "target": {
      "node": 11,
      "path": "scale"
     }
    }
   ],
   "name": "sparkle_4",
   "samplers": [
    {
     "input": 100,
     "interpolation": "LINEAR",
     "output": 111
    }
   ]
  },
  {
   "channels": [
    {
     "sampler": 0,
     "target": {
      "node": 12,
      "path": "scale"
     }
    }
   ],
   "name": "sparkle_5",
   "samplers": [
    {
     "input": 100,
     "interpolation": "LINEAR",
     "output": 112
    }
   ]
  },
  {
   "channels": [
    {
     "sampler": 0,
     "target": {
      "node": 13,
      "path": "scale"
     }
    }
   ],
   "name": "sparkle_6",
   "samplers": [
    {
     "input": 100,
     "interpolation": "LINEAR",
     "output": 113
    }
   ]
  },
  {
   "channels": [
    {
     "sampler": 0,
     "target": {
      "node": 14,
      "path": "scale"
     }
    }
   ],
   "name": "sparkle_7",
   "samplers": [
    {
     "input": 100,
     "interpolation": "LINEAR",
     "output": 114
    }
   ]
  },
  {
   "channels": [
    {
     "sampler": 0,
     "target": {
      "node": 15,
      "path": "scale"
     }
    }
   ],
   "name": "sparkle_8",
   "samplers": [
    {
     "input": 100,
     "interpolation": "LINEAR",
     "output": 115
    }
   ]
  },
  {
   "channels": [
    {
     "sampler": 0,
     "target": {
      "node": 16,
      "path": "scale"
     }
    }
   ],
   "name": "sparkle_9",
   "samplers": [
    {
     "input": 100,
     "interpolation": "LINEAR",
     "output": 116
    }
   ]
  }
 ],
 "materials": [
  {
   "doubleSided": true,
   "name": "anchor",
   "pbrMetallicRoughness": {
    "baseColorFactor": [
     0.9700000286102295,
     0.8999999761581421,
     0.800000011920929,
     1
    ],
    "metallicFactor": 0,
    "roughnessFactor": 0.8999999761581421
   }
  },
  {
   "doubleSided": true,
   "name": "shell",
   "pbrMetallicRoughness": {
    "baseColorFactor": [
     0.9700000286102295,
     0.8999999761581421,
     0.800000011920929,
     1
    ],
    "metallicFactor": 0,
    "roughnessFactor": 0.44999998807907104
   }
  },
  {
   "doubleSided": true,
   "name": "shell_glow",
   "pbrMetallicRoughness": {
    "baseColorFactor": [
     1,
     0.5199999809265137,
     0.18000000715255737,
     1
    ],
    "metallicFactor": 0,
    "roughnessFactor": 0.800000011920929
   }
  },
  {
   "doubleSided": true,
   "name": "b_iris",
   "pbrMetallicRoughness": {
    "baseColorFactor": [
     0.3199999928474426,
     0.10000000149011612,
     0.029999999329447746,
     1
    ],
    "metallicFactor": 0,
    "roughnessFactor": 0.5
   }
  },
  {
   "doubleSided": true,
   "name": "b_pupil",
   "pbrMetallicRoughness": {
    "baseColorFactor": [
     0.05999999865889549,
     0.029999999329447746,
     0.05000000074505806,
     1
    ],
    "metallicFactor": 0,
    "roughnessFactor": 0.5
   }
  },
  {
   "doubleSided": true,
   "name": "b_glint",
   "pbrMetallicRoughness": {
    "metallicFactor": 0,
    "roughnessFactor": 0.5
   }
  },
  {
   "doubleSided": true,
   "name": "b_body",
   "pbrMetallicRoughness": {
    "baseColorTexture": {
     "index": 0
    },
    "metallicFactor": 0,
    "roughnessFactor": 0.699999988079071
   }
  },
  {
   "doubleSided": true,
   "name": "b_horn.001",
   "pbrMetallicRoughness": {
    "baseColorFactor": [
     1,
     0.4000000059604645,
     0.029999999329447746,
     1
    ],
    "metallicFactor": 0,
    "roughnessFactor": 0.5
   }
  },
  {
   "doubleSided": true,
   "name": "b_accent_flat.001",
   "pbrMetallicRoughness": {
    "baseColorFactor": [
     1,
     0.6399999856948853,
     0.1599999964237213,
     1
    ],
    "metallicFactor": 0,
    "roughnessFactor": 0.5
   }
  },
  {
   "doubleSided": true,
   "name": "b_body_plain",
   "pbrMetallicRoughness": {
    "baseColorFactor": [
     0.8799999952316284,
     0.20000000298023224,
     0.03999999910593033,
     1
    ],
    "metallicFactor": 0,
    "roughnessFactor": 0.5
   }
  },
  {
   "doubleSided": true,
   "name": "b_membrane.001",
   "pbrMetallicRoughness": {
    "baseColorFactor": [
     0.7200000286102295,
     0.05000000074505806,
     0.029999999329447746,
     1
    ],
    "metallicFactor": 0,
    "roughnessFactor": 0.5
   }
  },
  {
   "doubleSided": true,
   "name": "heart_glow",
   "pbrMetallicRoughness": {
    "baseColorFactor": [
     1,
     0.800000011920929,
     0.46000000834465027,
     1
    ],
    "metallicFactor": 0,
    "roughnessFactor": 0.3499999940395355
   }
  },
  {
   "doubleSided": true,
   "emissiveFactor": [
    0.800000011920929,
    0.6880000216960909,
    0.3599999958276747
   ],
   "name": "sparkle",
   "pbrMetallicRoughness": {
    "baseColorFactor": [
     1,
     0.8600000143051147,
     0.44999998807907104,
     1
    ],
    "metallicFactor": 0,
    "roughnessFactor": 0.5
   },
   "alphaMode": "MASK",
   "alphaCutoff": 0.5,
   "extensions": {
    "KHR_materials_unlit": {}
   }
  },
  {
   "alphaMode": "MASK",
   "doubleSided": true,
   "name": "wordmark",
   "pbrMetallicRoughness": {
    "baseColorTexture": {
     "index": 1
    },
    "metallicFactor": 0
   },
   "alphaCutoff": 0.5,
   "extensions": {
    "KHR_materials_unlit": {}
   }
  }
 ],
 "meshes": [
  {
   "name": "aaa_anchor",
   "primitives": [
    {
     "attributes": {
      "POSITION": 0,
      "NORMAL": 1
     },
     "indices": 2,
     "material": 0
    }
   ]
  },
  {
   "name": "cap",
   "primitives": [
    {
     "attributes": {
      "POSITION": 3,
      "NORMAL": 4
     },
     "indices": 5,
     "material": 1
    },
    {
     "attributes": {
      "POSITION": 6,
      "NORMAL": 7
     },
     "indices": 8,
     "material": 2
    }
   ]
  },
  {
   "name": "eye_round_-1.002",
   "primitives": [
    {
     "attributes": {
      "POSITION": 9,
      "NORMAL": 10
     },
     "indices": 11,
     "material": 3
    },
    {
     "attributes": {
      "POSITION": 12,
      "NORMAL": 13
     },
     "indices": 14,
     "material": 4
    },
    {
     "attributes": {
      "POSITION": 15,
      "NORMAL": 16
     },
     "indices": 17,
     "material": 5
    }
   ]
  },
  {
   "name": "body.002_part.001",
   "primitives": [
    {
     "attributes": {
      "POSITION": 18,
      "NORMAL": 19,
      "TEXCOORD_0": 20
     },
     "indices": 21,
     "material": 6
    },
    {
     "attributes": {
      "POSITION": 22,
      "NORMAL": 23,
      "TEXCOORD_0": 24
     },
     "indices": 25,
     "material": 4
    },
    {
     "attributes": {
      "POSITION": 26,
      "NORMAL": 27,
      "TEXCOORD_0": 28
     },
     "indices": 29,
     "material": 7
    },
    {
     "attributes": {
      "POSITION": 30,
      "NORMAL": 31,
      "TEXCOORD_0": 32
     },
     "indices": 33,
     "material": 8
    },
    {
     "attributes": {
      "POSITION": 34,
      "NORMAL": 35,
      "TEXCOORD_0": 36
     },
     "indices": 37,
     "material": 9
    },
    {
     "attributes": {
      "POSITION": 38,
      "NORMAL": 39,
      "TEXCOORD_0": 40
     },
     "indices": 41,
     "material": 10
    }
   ]
  },
  {
   "name": "heart.001",
   "primitives": [
    {
     "attributes": {
      "POSITION": 42,
      "NORMAL": 43
     },
     "indices": 44,
     "material": 11
    }
   ]
  },
  {
   "name": "body.002_part.002",
   "primitives": [
    {
     "attributes": {
      "POSITION": 45,
      "NORMAL": 46,
      "TEXCOORD_0": 47
     },
     "indices": 48,
     "material": 6
    },
    {
     "attributes": {
      "POSITION": 49,
      "NORMAL": 50,
      "TEXCOORD_0": 51
     },
     "indices": 52,
     "material": 10
    }
   ]
  },
  {
   "name": "body.002_part",
   "primitives": [
    {
     "attributes": {
      "POSITION": 53,
      "NORMAL": 54,
      "TEXCOORD_0": 55
     },
     "indices": 56,
     "material": 6
    },
    {
     "attributes": {
      "POSITION": 57,
      "NORMAL": 58,
      "TEXCOORD_0": 59
     },
     "indices": 60,
     "material": 9
    },
    {
     "attributes": {
      "POSITION": 61,
      "NORMAL": 62,
      "TEXCOORD_0": 63
     },
     "indices": 64,
     "material": 7
    },
    {
     "attributes": {
      "POSITION": 65,
      "NORMAL": 66,
      "TEXCOORD_0": 67
     },
     "indices": 68,
     "material": 10
    }
   ]
  },
  {
   "name": "sparkle_0",
   "primitives": [
    {
     "attributes": {
      "POSITION": 69,
      "NORMAL": 70
     },
     "indices": 71,
     "material": 12
    }
   ]
  },
  {
   "name": "sparkle_1",
   "primitives": [
    {
     "attributes": {
      "POSITION": 72,
      "NORMAL": 73
     },
     "indices": 71,
     "material": 12
    }
   ]
  },
  {
   "name": "sparkle_2",
   "primitives": [
    {
     "attributes": {
      "POSITION": 74,
      "NORMAL": 75
     },
     "indices": 71,
     "material": 12
    }
   ]
  },
  {
   "name": "sparkle_3",
   "primitives": [
    {
     "attributes": {
      "POSITION": 76,
      "NORMAL": 77
     },
     "indices": 71,
     "material": 12
    }
   ]
  },
  {
   "name": "sparkle_4",
   "primitives": [
    {
     "attributes": {
      "POSITION": 78,
      "NORMAL": 79
     },
     "indices": 71,
     "material": 12
    }
   ]
  },
  {
   "name": "sparkle_5",
   "primitives": [
    {
     "attributes": {
      "POSITION": 80,
      "NORMAL": 81
     },
     "indices": 71,
     "material": 12
    }
   ]
  },
  {
   "name": "sparkle_6",
   "primitives": [
    {
     "attributes": {
      "POSITION": 82,
      "NORMAL": 83
     },
     "indices": 71,
     "material": 12
    }
   ]
  },
  {
   "name": "sparkle_7",
   "primitives": [
    {
     "attributes": {
      "POSITION": 84,
      "NORMAL": 85
     },
     "indices": 71,
     "material": 12
    }
   ]
  },
  {
   "name": "sparkle_8",
   "primitives": [
    {
     "attributes": {
      "POSITION": 86,
      "NORMAL": 87
     },
     "indices": 71,
     "material": 12
    }
   ]
  },
  {
   "name": "sparkle_9",
   "primitives": [
    {
     "attributes": {
      "POSITION": 88,
      "NORMAL": 89
     },
     "indices": 71,
     "material": 12
    }
   ]
  },
  {
   "name": "wordmark",
   "primitives": [
    {
     "attributes": {
      "POSITION": 90,
      "NORMAL": 91,
      "TEXCOORD_0": 92
     },
     "indices": 93,
     "material": 13
    }
   ]
  },
  {
   "name": "egg",
   "primitives": [
    {
     "attributes": {
      "POSITION": 94,
      "NORMAL": 95
     },
     "indices": 96,
     "material": 1
    },
    {
     "attributes": {
      "POSITION": 97,
      "NORMAL": 98
     },
     "indices": 99,
     "material": 2
    }
   ]
  }
 ],
 "textures": [
  {
   "sampler": 0,
   "source": 0
  },
  {
   "sampler": 0,
   "source": 1
  }
 ],
 "images": [
  {
   "mimeType": "image/png",
   "name": "banner_skin",
   "uri": "banner_skin.png"
  },
  {
   "mimeType": "image/png",
   "name": "wordmark",
   "uri": "wordmark.png"
  }
 ],
 "accessors": [
  {
   "bufferView": 0,
   "componentType": 5126,
   "count": 3,
   "max": [
    0.20000000298023224,
    0.30000001192092896,
    0
   ],
   "min": [
    -0.20000000298023224,
    0,
    0
   ],
   "type": "VEC3"
  },
  {
   "bufferView": 1,
   "componentType": 5126,
   "count": 3,
   "type": "VEC3"
  },
  {
   "bufferView": 2,
   "componentType": 5123,
   "count": 3,
   "type": "SCALAR"
  },
  {
   "bufferView": 3,
   "componentType": 5126,
   "count": 193,
   "max": [
    5.961964130401611,
    6.81273889541626,
    5.961964130401611
   ],
   "min": [
    -5.961964130401611,
    0,
    -5.961964130401611
   ],
   "type": "VEC3"
  },
  {
   "bufferView": 4,
   "componentType": 5126,
   "count": 193,
   "type": "VEC3"
  },
  {
   "bufferView": 5,
   "componentType": 5123,
   "count": 1080,
   "type": "SCALAR"
  },
  {
   "bufferView": 6,
   "componentType": 5126,
   "count": 169,
   "max": [
    5.484617233276367,
    6.313989162445068,
    5.484617233276367
   ],
   "min": [
    -5.484617710113525,
    0,
    -5.484617233276367
   ],
   "type": "VEC3"
  },
  {
   "bufferView": 7,
   "componentType": 5126,
   "count": 169,
   "type": "VEC3"
  },
  {
   "bufferView": 8,
   "componentType": 5123,
   "count": 936,
   "type": "SCALAR"
  },
  {
   "bufferView": 9,
   "componentType": 5126,
   "count": 86,
   "max": [
    2.7615184783935547,
    1.3129868507385254,
    0.9597070217132568
   ],
   "min": [
    -2.745662212371826,
    -1.1869491338729858,
    -0.40559127926826477
   ],
   "type": "VEC3"
  },
  {
   "bufferView": 10,
   "componentType": 5126,
   "count": 86,
   "type": "VEC3"
  },
  {
   "bufferView": 11,
   "componentType": 5123,
   "count": 420,
   "type": "SCALAR"
  },
  {
   "bufferView": 12,
   "componentType": 5126,
   "count": 50,
   "max": [
    2.6129403114318848,
    1.067643165588379,
    1.030953049659729
   ],
   "min": [
    -2.597083806991577,
    -0.7440261840820312,
    0.15030787885189056
   ],
   "type": "VEC3"
  },
  {
   "bufferView": 13,
   "componentType": 5126,
   "count": 50,
   "type": "VEC3"
  },
  {
   "bufferView": 14,
   "componentType": 5123,
   "count": 216,
   "type": "SCALAR"
  },
  {
   "bufferView": 15,
   "componentType": 5126,
   "count": 36,
   "max": [
    2.484173059463501,
    0.8918514251708984,
    1.063678503036499
   ],
   "min": [
    -2.4683167934417725,
    -0.2797847390174866,
    0.43828117847442627
   ],
   "type": "VEC3"
  },
  {
   "bufferView": 16,
   "componentType": 5126,
   "count": 36,
   "type": "VEC3"
  },
  {
   "bufferView": 17,
   "componentType": 5123,
   "count": 96,
   "type": "SCALAR"
  },
  {
   "bufferView": 18,
   "componentType": 5126,
   "count": 139,
   "max": [
    3.3991904258728027,
    3.7383832931518555,
    4.334710121154785
   ],
   "min": [
    -3.393860340118408,
    -3.1911275386810303,
    -2.9036366939544678
   ],
   "type": "VEC3"
  },
  {
   "bufferView": 19,
   "componentType": 5126,
   "count": 139,
   "type": "VEC3"
  },
  {
   "bufferView": 20,
   "componentType": 5126,
   "count": 139,
   "type": "VEC2"
  },
  {
   "bufferView": 21,
   "componentType": 5123,
   "count": 414,
   "type": "SCALAR"
  },
  {
   "bufferView": 22,
   "componentType": 5126,
   "count": 34,
   "max": [
    2.6126511096954346,
    0.5344226956367493,
    4.226032257080078
   ],
   "min": [
    -2.522152900695801,
    -0.45754921436309814,
    2.9894156455993652
   ],
   "type": "VEC3"
  },
  {
   "bufferView": 23,
   "componentType": 5126,
   "count": 34,
   "type": "VEC3"
  },
  {
   "bufferView": 24,
   "componentType": 5126,
   "count": 34,
   "type": "VEC2"
  },
  {
   "bufferView": 25,
   "componentType": 5123,
   "count": 138,
   "type": "SCALAR"
  },
  {
   "bufferView": 26,
   "componentType": 5126,
   "count": 42,
   "max": [
    3.6733927726745605,
    5.349346160888672,
    0.02354324609041214
   ],
   "min": [
    -3.585775852203369,
    1.1811708211898804,
    -3.0667014122009277
   ],
   "type": "VEC3"
  },
  {
   "bufferView": 27,
   "componentType": 5126,
   "count": 42,
   "type": "VEC3"
  },
  {
   "bufferView": 28,
   "componentType": 5126,
   "count": 42,
   "type": "VEC2"
  },
  {
   "bufferView": 29,
   "componentType": 5123,
   "count": 42,
   "type": "SCALAR"
  },
  {
   "bufferView": 30,
   "componentType": 5126,
   "count": 48,
   "max": [
    2.474393129348755,
    4.528625965118408,
    0.08161948621273041
   ],
   "min": [
    -2.5113954544067383,
    2.6555192470550537,
    -1.887215495109558
   ],
   "type": "VEC3"
  },
  {
   "bufferView": 31,
   "componentType": 5126,
   "count": 48,
   "type": "VEC3"
  },
  {
   "bufferView": 32,
   "componentType": 5126,
   "count": 48,
   "type": "VEC2"
  },
  {
   "bufferView": 33,
   "componentType": 5123,
   "count": 84,
   "type": "SCALAR"
  },
  {
   "bufferView": 34,
   "componentType": 5126,
   "count": 40,
   "max": [
    3.6733927726745605,
    4.673547744750977,
    0.24394820630550385
   ],
   "min": [
    -3.585775852203369,
    1.1811708211898804,
    -2.497861623764038
   ],
   "type": "VEC3"
  },
  {
   "bufferView": 35,
   "componentType": 5126,
   "count": 40,
   "type": "VEC3"
  },
  {
   "bufferView": 36,
   "componentType": 5126,
   "count": 40,
   "type": "VEC2"
  },
  {
   "bufferView": 37,
   "componentType": 5123,
   "count": 72,
   "type": "SCALAR"
  },
  {
   "bufferView": 38,
   "componentType": 5126,
   "count": 16,
   "max": [
    3.2081401348114014,
    4.7442169189453125,
    -1.9812356233596802
   ],
   "min": [
    -3.1665639877319336,
    4.092355728149414,
    -2.727612257003784
   ],
   "type": "VEC3"
  },
  {
   "bufferView": 39,
   "componentType": 5126,
   "count": 16,
   "type": "VEC3"
  },
  {
   "bufferView": 40,
   "componentType": 5126,
   "count": 16,
   "type": "VEC2"
  },
  {
   "bufferView": 41,
   "componentType": 5123,
   "count": 24,
   "type": "SCALAR"
  },
  {
   "bufferView": 42,
   "componentType": 5126,
   "count": 20,
   "max": [
    0.6410919427871704,
    0.43704476952552795,
    0.36509445309638977
   ],
   "min": [
    -0.6410919427871704,
    -0.6528865098953247,
    -0.25982165336608887
   ],
   "type": "VEC3"
  },
  {
   "bufferView": 43,
   "componentType": 5126,
   "count": 20,
   "type": "VEC3"
  },
  {
   "bufferView": 44,
   "componentType": 5123,
   "count": 48,
   "type": "SCALAR"
  },
  {
   "bufferView": 45,
   "componentType": 5126,
   "count": 62,
   "max": [
    1.561277985572815,
    3.543851375579834,
    -0.7179878354072571
   ],
   "min": [
    -3.24385929107666,
    -1.0966408252716064,
    -5.244150638580322
   ],
   "type": "VEC3"
  },
  {
   "bufferView": 46,
   "componentType": 5126,
   "count": 62,
   "type": "VEC3"
  },
  {
   "bufferView": 47,
   "componentType": 5126,
   "count": 62,
   "type": "VEC2"
  },
  {
   "bufferView": 48,
   "componentType": 5123,
   "count": 159,
   "type": "SCALAR"
  },
  {
   "bufferView": 49,
   "componentType": 5126,
   "count": 30,
   "max": [
    -2.528562307357788,
    4.625165939331055,
    -1.8637157678604126
   ],
   "min": [
    -3.5516676902770996,
    2.9098854064941406,
    -4.069926738739014
   ],
   "type": "VEC3"
  },
  {
   "bufferView": 50,
   "componentType": 5126,
   "count": 30,
   "type": "VEC3"
  },
  {
   "bufferView": 51,
   "componentType": 5126,
   "count": 30,
   "type": "VEC2"
  },
  {
   "bufferView": 52,
   "componentType": 5123,
   "count": 54,
   "type": "SCALAR"
  },
  {
   "bufferView": 53,
   "componentType": 5126,
   "count": 243,
   "max": [
    3.306981325149536,
    8.146852493286133,
    4.005207061767578
   ],
   "min": [
    -3.295572280883789,
    -1.871728777885437,
    -4.526829242706299
   ],
   "type": "VEC3"
  },
  {
   "bufferView": 54,
   "componentType": 5126,
   "count": 243,
   "type": "VEC3"
  },
  {
   "bufferView": 55,
   "componentType": 5126,
   "count": 243,
   "type": "VEC2"
  },
  {
   "bufferView": 56,
   "componentType": 5123,
   "count": 681,
   "type": "SCALAR"
  },
  {
   "bufferView": 57,
   "componentType": 5126,
   "count": 52,
   "max": [
    1.798747181892395,
    4.447732925415039,
    -0.2981717586517334
   ],
   "min": [
    -1.829473614692688,
    2.1132562160491943,
    -5.0168843269348145
   ],
   "type": "VEC3"
  },
  {
   "bufferView": 58,
   "componentType": 5126,
   "count": 52,
   "type": "VEC3"
  },
  {
   "bufferView": 59,
   "componentType": 5126,
   "count": 52,
   "type": "VEC2"
  },
  {
   "bufferView": 60,
   "componentType": 5123,
   "count": 288,
   "type": "SCALAR"
  },
  {
   "bufferView": 61,
   "componentType": 5126,
   "count": 52,
   "max": [
    2.032127857208252,
    3.5687386989593506,
    -2.269251823425293
   ],
   "min": [
    -2.032127857208252,
    1.9254964590072632,
    -4.730016231536865
   ],
   "type": "VEC3"
  },
  {
   "bufferView": 62,
   "componentType": 5126,
   "count": 52,
   "type": "VEC3"
  },
  {
   "bufferView": 63,
   "componentType": 5126,
   "count": 52,
   "type": "VEC2"
  },
  {
   "bufferView": 64,
   "componentType": 5123,
   "count": 132,
   "type": "SCALAR"
  },
  {
   "bufferView": 65,
   "componentType": 5126,
   "count": 40,
   "max": [
    1.9123857021331787,
    3.8972675800323486,
    -0.86334228515625
   ],
   "min": [
    -1.9123857021331787,
    1.6689025163650513,
    -5.142612457275391
   ],
   "type": "VEC3"
  },
  {
   "bufferView": 66,
   "componentType": 5126,
   "count": 40,
   "type": "VEC3"
  },
  {
   "bufferView": 67,
   "componentType": 5126,
   "count": 40,
   "type": "VEC2"
  },
  {
   "bufferView": 68,
   "componentType": 5123,
   "count": 96,
   "type": "SCALAR"
  },
  {
   "bufferView": 69,
   "componentType": 5126,
   "count": 9,
   "max": [
    1.600000023841858,
    1.600000023841858,
    0
   ],
   "min": [
    -1.600000023841858,
    -1.600000023841858,
    0
   ],
   "type": "VEC3"
  },
  {
   "bufferView": 70,
   "componentType": 5126,
   "count": 9,
   "type": "VEC3"
  },
  {
   "bufferView": 71,
   "componentType": 5123,
   "count": 24,
   "type": "SCALAR"
  },
  {
   "bufferView": 72,
   "componentType": 5126,
   "count": 9,
   "max": [
    1.600000023841858,
    1.600000023841858,
    0
   ],
   "min": [
    -1.600000023841858,
    -1.600000023841858,
    0
   ],
   "type": "VEC3"
  },
  {
   "bufferView": 73,
   "componentType": 5126,
   "count": 9,
   "type": "VEC3"
  },
  {
   "bufferView": 74,
   "componentType": 5126,
   "count": 9,
   "max": [
    1.1200000047683716,
    1.1200000047683716,
    0
   ],
   "min": [
    -1.1200000047683716,
    -1.1200000047683716,
    0
   ],
   "type": "VEC3"
  },
  {
   "bufferView": 75,
   "componentType": 5126,
   "count": 9,
   "type": "VEC3"
  },
  {
   "bufferView": 76,
   "componentType": 5126,
   "count": 9,
   "max": [
    1.1200000047683716,
    1.1200000047683716,
    0
   ],
   "min": [
    -1.1200000047683716,
    -1.1200000047683716,
    0
   ],
   "type": "VEC3"
  },
  {
   "bufferView": 77,
   "componentType": 5126,
   "count": 9,
   "type": "VEC3"
  },
  {
   "bufferView": 78,
   "componentType": 5126,
   "count": 9,
   "max": [
    1.9199999570846558,
    1.9199999570846558,
    0
   ],
   "min": [
    -1.9199999570846558,
    -1.9199999570846558,
    0
   ],
   "type": "VEC3"
  },
  {
   "bufferView": 79,
   "componentType": 5126,
   "count": 9,
   "type": "VEC3"
  },
  {
   "bufferView": 80,
   "componentType": 5126,
   "count": 9,
   "max": [
    1.2799999713897705,
    1.2799999713897705,
    0
   ],
   "min": [
    -1.2799999713897705,
    -1.2799999713897705,
    0
   ],
   "type": "VEC3"
  },
  {
   "bufferView": 81,
   "componentType": 5126,
   "count": 9,
   "type": "VEC3"
  },
  {
   "bufferView": 82,
   "componentType": 5126,
   "count": 9,
   "max": [
    0.9599999785423279,
    0.9599999785423279,
    0
   ],
   "min": [
    -0.9599999785423279,
    -0.9599999785423279,
    0
   ],
   "type": "VEC3"
  },
  {
   "bufferView": 83,
   "componentType": 5126,
   "count": 9,
   "type": "VEC3"
  },
  {
   "bufferView": 84,
   "componentType": 5126,
   "count": 9,
   "max": [
    1.440000057220459,
    1.440000057220459,
    0
   ],
   "min": [
    -1.440000057220459,
    -1.440000057220459,
    0
   ],
   "type": "VEC3"
  },
  {
   "bufferView": 85,
   "componentType": 5126,
   "count": 9,
   "type": "VEC3"
  },
  {
   "bufferView": 86,
   "componentType": 5126,
   "count": 9,
   "max": [
    1.2799999713897705,
    1.2799999713897705,
    0
   ],
   "min": [
    -1.2799999713897705,
    -1.2799999713897705,
    0
   ],
   "type": "VEC3"
  },
  {
   "bufferView": 87,
   "componentType": 5126,
   "count": 9,
   "type": "VEC3"
  },
  {
   "bufferView": 88,
   "componentType": 5126,
   "count": 9,
   "max": [
    1.1200000047683716,
    1.1200000047683716,
    0
   ],
   "min": [
    -1.1200000047683716,
    -1.1200000047683716,
    0
   ],
   "type": "VEC3"
  },
  {
   "bufferView": 89,
   "componentType": 5126,
   "count": 9,
   "type": "VEC3"
  },
  {
   "bufferView": 90,
   "componentType": 5126,
   "count": 4,
   "max": [
    15,
    3.75,
    0
   ],
   "min": [
    -15,
    -3.75,
    0
   ],
   "type": "VEC3"
  },
  {
   "bufferView": 91,
   "componentType": 5126,
   "count": 4,
   "type": "VEC3"
  },
  {
   "bufferView": 92,
   "componentType": 5126,
   "count": 4,
   "type": "VEC2"
  },
  {
   "bufferView": 93,
   "componentType": 5123,
   "count": 6,
   "type": "SCALAR"
  },
  {
   "bufferView": 94,
   "componentType": 5126,
   "count": 217,
   "max": [
    6.299998760223389,
    8.538633346557617,
    6.2999982833862305
   ],
   "min": [
    -6.299996852874756,
    0,
    -6.299996376037598
   ],
   "type": "VEC3"
  },
  {
   "bufferView": 95,
   "componentType": 5126,
   "count": 217,
   "type": "VEC3"
  },
  {
   "bufferView": 96,
   "componentType": 5123,
   "count": 1224,
   "type": "SCALAR"
  },
  {
   "bufferView": 97,
   "componentType": 5126,
   "count": 193,
   "max": [
    5.801934242248535,
    8.538633346557617,
    5.8019328117370605
   ],
   "min": [
    -5.801931858062744,
    0.4987500011920929,
    -5.801931858062744
   ],
   "type": "VEC3"
  },
  {
   "bufferView": 98,
   "componentType": 5126,
   "count": 193,
   "type": "VEC3"
  },
  {
   "bufferView": 99,
   "componentType": 5123,
   "count": 1080,
   "type": "SCALAR"
  },
  {
   "bufferView": 100,
   "componentType": 5126,
   "count": 241,
   "max": [
    10
   ],
   "min": [
    0
   ],
   "type": "SCALAR"
  },
  {
   "bufferView": 101,
   "componentType": 5126,
   "count": 241,
   "type": "VEC3"
  },
  {
   "bufferView": 102,
   "componentType": 5126,
   "count": 241,
   "type": "VEC4"
  },
  {
   "bufferView": 103,
   "componentType": 5126,
   "count": 241,
   "type": "VEC4"
  },
  {
   "bufferView": 104,
   "componentType": 5126,
   "count": 241,
   "type": "VEC3"
  },
  {
   "bufferView": 105,
   "componentType": 5126,
   "count": 241,
   "type": "VEC3"
  },
  {
   "bufferView": 106,
   "componentType": 5126,
   "count": 241,
   "type": "VEC4"
  },
  {
   "bufferView": 107,
   "componentType": 5126,
   "count": 241,
   "type": "VEC3"
  },
  {
   "bufferView": 108,
   "componentType": 5126,
   "count": 241,
   "type": "VEC3"
  },
  {
   "bufferView": 109,
   "componentType": 5126,
   "count": 241,
   "type": "VEC3"
  },
  {
   "bufferView": 110,
   "componentType": 5126,
   "count": 241,
   "type": "VEC3"
  },
  {
   "bufferView": 111,
   "componentType": 5126,
   "count": 241,
   "type": "VEC3"
  },
  {
   "bufferView": 112,
   "componentType": 5126,
   "count": 241,
   "type": "VEC3"
  },
  {
   "bufferView": 113,
   "componentType": 5126,
   "count": 241,
   "type": "VEC3"
  },
  {
   "bufferView": 114,
   "componentType": 5126,
   "count": 241,
   "type": "VEC3"
  },
  {
   "bufferView": 115,
   "componentType": 5126,
   "count": 241,
   "type": "VEC3"
  },
  {
   "bufferView": 116,
   "componentType": 5126,
   "count": 241,
   "type": "VEC3"
  },
  {
   "bufferView": 117,
   "componentType": 5126,
   "count": 25,
   "type": "SCALAR",
   "min": [
    0.0
   ],
   "max": [
    10.0
   ]
  },
  {
   "bufferView": 118,
   "componentType": 5126,
   "count": 25,
   "type": "VEC4"
  }
 ],
 "bufferViews": [
  {
   "buffer": 0,
   "byteLength": 36,
   "byteOffset": 0,
   "target": 34962
  },
  {
   "buffer": 0,
   "byteLength": 36,
   "byteOffset": 36,
   "target": 34962
  },
  {
   "buffer": 0,
   "byteLength": 6,
   "byteOffset": 72,
   "target": 34963
  },
  {
   "buffer": 0,
   "byteLength": 2316,
   "byteOffset": 80,
   "target": 34962
  },
  {
   "buffer": 0,
   "byteLength": 2316,
   "byteOffset": 2396,
   "target": 34962
  },
  {
   "buffer": 0,
   "byteLength": 2160,
   "byteOffset": 4712,
   "target": 34963
  },
  {
   "buffer": 0,
   "byteLength": 2028,
   "byteOffset": 6872,
   "target": 34962
  },
  {
   "buffer": 0,
   "byteLength": 2028,
   "byteOffset": 8900,
   "target": 34962
  },
  {
   "buffer": 0,
   "byteLength": 1872,
   "byteOffset": 10928,
   "target": 34963
  },
  {
   "buffer": 0,
   "byteLength": 1032,
   "byteOffset": 12800,
   "target": 34962
  },
  {
   "buffer": 0,
   "byteLength": 1032,
   "byteOffset": 13832,
   "target": 34962
  },
  {
   "buffer": 0,
   "byteLength": 840,
   "byteOffset": 14864,
   "target": 34963
  },
  {
   "buffer": 0,
   "byteLength": 600,
   "byteOffset": 15704,
   "target": 34962
  },
  {
   "buffer": 0,
   "byteLength": 600,
   "byteOffset": 16304,
   "target": 34962
  },
  {
   "buffer": 0,
   "byteLength": 432,
   "byteOffset": 16904,
   "target": 34963
  },
  {
   "buffer": 0,
   "byteLength": 432,
   "byteOffset": 17336,
   "target": 34962
  },
  {
   "buffer": 0,
   "byteLength": 432,
   "byteOffset": 17768,
   "target": 34962
  },
  {
   "buffer": 0,
   "byteLength": 192,
   "byteOffset": 18200,
   "target": 34963
  },
  {
   "buffer": 0,
   "byteLength": 1668,
   "byteOffset": 18392,
   "target": 34962
  },
  {
   "buffer": 0,
   "byteLength": 1668,
   "byteOffset": 20060,
   "target": 34962
  },
  {
   "buffer": 0,
   "byteLength": 1112,
   "byteOffset": 21728,
   "target": 34962
  },
  {
   "buffer": 0,
   "byteLength": 828,
   "byteOffset": 22840,
   "target": 34963
  },
  {
   "buffer": 0,
   "byteLength": 408,
   "byteOffset": 23668,
   "target": 34962
  },
  {
   "buffer": 0,
   "byteLength": 408,
   "byteOffset": 24076,
   "target": 34962
  },
  {
   "buffer": 0,
   "byteLength": 272,
   "byteOffset": 24484,
   "target": 34962
  },
  {
   "buffer": 0,
   "byteLength": 276,
   "byteOffset": 24756,
   "target": 34963
  },
  {
   "buffer": 0,
   "byteLength": 504,
   "byteOffset": 25032,
   "target": 34962
  },
  {
   "buffer": 0,
   "byteLength": 504,
   "byteOffset": 25536,
   "target": 34962
  },
  {
   "buffer": 0,
   "byteLength": 336,
   "byteOffset": 26040,
   "target": 34962
  },
  {
   "buffer": 0,
   "byteLength": 84,
   "byteOffset": 26376,
   "target": 34963
  },
  {
   "buffer": 0,
   "byteLength": 576,
   "byteOffset": 26460,
   "target": 34962
  },
  {
   "buffer": 0,
   "byteLength": 576,
   "byteOffset": 27036,
   "target": 34962
  },
  {
   "buffer": 0,
   "byteLength": 384,
   "byteOffset": 27612,
   "target": 34962
  },
  {
   "buffer": 0,
   "byteLength": 168,
   "byteOffset": 27996,
   "target": 34963
  },
  {
   "buffer": 0,
   "byteLength": 480,
   "byteOffset": 28164,
   "target": 34962
  },
  {
   "buffer": 0,
   "byteLength": 480,
   "byteOffset": 28644,
   "target": 34962
  },
  {
   "buffer": 0,
   "byteLength": 320,
   "byteOffset": 29124,
   "target": 34962
  },
  {
   "buffer": 0,
   "byteLength": 144,
   "byteOffset": 29444,
   "target": 34963
  },
  {
   "buffer": 0,
   "byteLength": 192,
   "byteOffset": 29588,
   "target": 34962
  },
  {
   "buffer": 0,
   "byteLength": 192,
   "byteOffset": 29780,
   "target": 34962
  },
  {
   "buffer": 0,
   "byteLength": 128,
   "byteOffset": 29972,
   "target": 34962
  },
  {
   "buffer": 0,
   "byteLength": 48,
   "byteOffset": 30100,
   "target": 34963
  },
  {
   "buffer": 0,
   "byteLength": 240,
   "byteOffset": 30148,
   "target": 34962
  },
  {
   "buffer": 0,
   "byteLength": 240,
   "byteOffset": 30388,
   "target": 34962
  },
  {
   "buffer": 0,
   "byteLength": 96,
   "byteOffset": 30628,
   "target": 34963
  },
  {
   "buffer": 0,
   "byteLength": 744,
   "byteOffset": 30724,
   "target": 34962
  },
  {
   "buffer": 0,
   "byteLength": 744,
   "byteOffset": 31468,
   "target": 34962
  },
  {
   "buffer": 0,
   "byteLength": 496,
   "byteOffset": 32212,
   "target": 34962
  },
  {
   "buffer": 0,
   "byteLength": 318,
   "byteOffset": 32708,
   "target": 34963
  },
  {
   "buffer": 0,
   "byteLength": 360,
   "byteOffset": 33028,
   "target": 34962
  },
  {
   "buffer": 0,
   "byteLength": 360,
   "byteOffset": 33388,
   "target": 34962
  },
  {
   "buffer": 0,
   "byteLength": 240,
   "byteOffset": 33748,
   "target": 34962
  },
  {
   "buffer": 0,
   "byteLength": 108,
   "byteOffset": 33988,
   "target": 34963
  },
  {
   "buffer": 0,
   "byteLength": 2916,
   "byteOffset": 34096,
   "target": 34962
  },
  {
   "buffer": 0,
   "byteLength": 2916,
   "byteOffset": 37012,
   "target": 34962
  },
  {
   "buffer": 0,
   "byteLength": 1944,
   "byteOffset": 39928,
   "target": 34962
  },
  {
   "buffer": 0,
   "byteLength": 1362,
   "byteOffset": 41872,
   "target": 34963
  },
  {
   "buffer": 0,
   "byteLength": 624,
   "byteOffset": 43236,
   "target": 34962
  },
  {
   "buffer": 0,
   "byteLength": 624,
   "byteOffset": 43860,
   "target": 34962
  },
  {
   "buffer": 0,
   "byteLength": 416,
   "byteOffset": 44484,
   "target": 34962
  },
  {
   "buffer": 0,
   "byteLength": 576,
   "byteOffset": 44900,
   "target": 34963
  },
  {
   "buffer": 0,
   "byteLength": 624,
   "byteOffset": 45476,
   "target": 34962
  },
  {
   "buffer": 0,
   "byteLength": 624,
   "byteOffset": 46100,
   "target": 34962
  },
  {
   "buffer": 0,
   "byteLength": 416,
   "byteOffset": 46724,
   "target": 34962
  },
  {
   "buffer": 0,
   "byteLength": 264,
   "byteOffset": 47140,
   "target": 34963
  },
  {
   "buffer": 0,
   "byteLength": 480,
   "byteOffset": 47404,
   "target": 34962
  },
  {
   "buffer": 0,
   "byteLength": 480,
   "byteOffset": 47884,
   "target": 34962
  },
  {
   "buffer": 0,
   "byteLength": 320,
   "byteOffset": 48364,
   "target": 34962
  },
  {
   "buffer": 0,
   "byteLength": 192,
   "byteOffset": 48684,
   "target": 34963
  },
  {
   "buffer": 0,
   "byteLength": 108,
   "byteOffset": 48876,
   "target": 34962
  },
  {
   "buffer": 0,
   "byteLength": 108,
   "byteOffset": 48984,
   "target": 34962
  },
  {
   "buffer": 0,
   "byteLength": 48,
   "byteOffset": 49092,
   "target": 34963
  },
  {
   "buffer": 0,
   "byteLength": 108,
   "byteOffset": 49140,
   "target": 34962
  },
  {
   "buffer": 0,
   "byteLength": 108,
   "byteOffset": 49248,
   "target": 34962
  },
  {
   "buffer": 0,
   "byteLength": 108,
   "byteOffset": 49356,
   "target": 34962
  },
  {
   "buffer": 0,
   "byteLength": 108,
   "byteOffset": 49464,
   "target": 34962
  },
  {
   "buffer": 0,
   "byteLength": 108,
   "byteOffset": 49572,
   "target": 34962
  },
  {
   "buffer": 0,
   "byteLength": 108,
   "byteOffset": 49680,
   "target": 34962
  },
  {
   "buffer": 0,
   "byteLength": 108,
   "byteOffset": 49788,
   "target": 34962
  },
  {
   "buffer": 0,
   "byteLength": 108,
   "byteOffset": 49896,
   "target": 34962
  },
  {
   "buffer": 0,
   "byteLength": 108,
   "byteOffset": 50004,
   "target": 34962
  },
  {
   "buffer": 0,
   "byteLength": 108,
   "byteOffset": 50112,
   "target": 34962
  },
  {
   "buffer": 0,
   "byteLength": 108,
   "byteOffset": 50220,
   "target": 34962
  },
  {
   "buffer": 0,
   "byteLength": 108,
   "byteOffset": 50328,
   "target": 34962
  },
  {
   "buffer": 0,
   "byteLength": 108,
   "byteOffset": 50436,
   "target": 34962
  },
  {
   "buffer": 0,
   "byteLength": 108,
   "byteOffset": 50544,
   "target": 34962
  },
  {
   "buffer": 0,
   "byteLength": 108,
   "byteOffset": 50652,
   "target": 34962
  },
  {
   "buffer": 0,
   "byteLength": 108,
   "byteOffset": 50760,
   "target": 34962
  },
  {
   "buffer": 0,
   "byteLength": 108,
   "byteOffset": 50868,
   "target": 34962
  },
  {
   "buffer": 0,
   "byteLength": 108,
   "byteOffset": 50976,
   "target": 34962
  },
  {
   "buffer": 0,
   "byteLength": 48,
   "byteOffset": 51084,
   "target": 34962
  },
  {
   "buffer": 0,
   "byteLength": 48,
   "byteOffset": 51132,
   "target": 34962
  },
  {
   "buffer": 0,
   "byteLength": 32,
   "byteOffset": 51180,
   "target": 34962
  },
  {
   "buffer": 0,
   "byteLength": 12,
   "byteOffset": 51212,
   "target": 34963
  },
  {
   "buffer": 0,
   "byteLength": 2604,
   "byteOffset": 51224,
   "target": 34962
  },
  {
   "buffer": 0,
   "byteLength": 2604,
   "byteOffset": 53828,
   "target": 34962
  },
  {
   "buffer": 0,
   "byteLength": 2448,
   "byteOffset": 56432,
   "target": 34963
  },
  {
   "buffer": 0,
   "byteLength": 2316,
   "byteOffset": 58880,
   "target": 34962
  },
  {
   "buffer": 0,
   "byteLength": 2316,
   "byteOffset": 61196,
   "target": 34962
  },
  {
   "buffer": 0,
   "byteLength": 2160,
   "byteOffset": 63512,
   "target": 34963
  },
  {
   "buffer": 0,
   "byteLength": 964,
   "byteOffset": 65672
  },
  {
   "buffer": 0,
   "byteLength": 2892,
   "byteOffset": 66636
  },
  {
   "buffer": 0,
   "byteLength": 3856,
   "byteOffset": 69528
  },
  {
   "buffer": 0,
   "byteLength": 3856,
   "byteOffset": 73384
  },
  {
   "buffer": 0,
   "byteLength": 2892,
   "byteOffset": 77240
  },
  {
   "buffer": 0,
   "byteLength": 2892,
   "byteOffset": 80132
  },
  {
   "buffer": 0,
   "byteLength": 3856,
   "byteOffset": 83024
  },
  {
   "buffer": 0,
   "byteLength": 2892,
   "byteOffset": 86880
  },
  {
   "buffer": 0,
   "byteLength": 2892,
   "byteOffset": 89772
  },
  {
   "buffer": 0,
   "byteLength": 2892,
   "byteOffset": 92664
  },
  {
   "buffer": 0,
   "byteLength": 2892,
   "byteOffset": 95556
  },
  {
   "buffer": 0,
   "byteLength": 2892,
   "byteOffset": 98448
  },
  {
   "buffer": 0,
   "byteLength": 2892,
   "byteOffset": 101340
  },
  {
   "buffer": 0,
   "byteLength": 2892,
   "byteOffset": 104232
  },
  {
   "buffer": 0,
   "byteLength": 2892,
   "byteOffset": 107124
  },
  {
   "buffer": 0,
   "byteLength": 2892,
   "byteOffset": 110016
  },
  {
   "buffer": 0,
   "byteLength": 2892,
   "byteOffset": 112908
  },
  {
   "buffer": 1,
   "byteOffset": 0,
   "byteLength": 100
  },
  {
   "buffer": 1,
   "byteOffset": 100,
   "byteLength": 400
  }
 ],
 "samplers": [
  {
   "magFilter": 9729,
   "minFilter": 9987
  }
 ],
 "buffers": [
  {
   "byteLength": 115800,
   "uri": "banner.bin"
  },
  {
   "uri": "heart_colour.bin",
   "byteLength": 500
  }
 ],
 "extensionsUsed": [
  "KHR_animation_pointer",
  "KHR_materials_unlit"
 ]
}